<mxfile host="app.diagrams.net" modified="2023-05-30T20:07:18.739Z" agent="Mozilla/5.0 (X11; Ubuntu; Linux x86_64; rv:109.0) Gecko/20100101 Firefox/111.0" etag="Mym-eJDY_bD0qcZTSZ2r" version="21.3.6" type="device">
  <diagram name="Page-1" id="CYyCIWnNIRoXxPCxCfVI">
    <mxGraphModel dx="3163" dy="1283" grid="1" gridSize="10" guides="1" tooltips="1" connect="1" arrows="1" fold="1" page="1" pageScale="1" pageWidth="850" pageHeight="1100" math="0" shadow="0">
      <root>
        <mxCell id="0" />
        <mxCell id="1" parent="0" />
        <mxCell id="eSy3FWioJyTbYzm8Jmqo-87" style="edgeStyle=orthogonalEdgeStyle;rounded=0;orthogonalLoop=1;jettySize=auto;html=1;exitX=0.06;exitY=0.75;exitDx=0;exitDy=0;exitPerimeter=0;entryX=0;entryY=0.5;entryDx=0;entryDy=0;" edge="1" parent="1" source="eSy3FWioJyTbYzm8Jmqo-34" target="eSy3FWioJyTbYzm8Jmqo-76">
          <mxGeometry relative="1" as="geometry" />
        </mxCell>
        <mxCell id="eSy3FWioJyTbYzm8Jmqo-103" value="Control Data" style="edgeLabel;html=1;align=center;verticalAlign=middle;resizable=0;points=[];" vertex="1" connectable="0" parent="eSy3FWioJyTbYzm8Jmqo-87">
          <mxGeometry x="-0.275" relative="1" as="geometry">
            <mxPoint as="offset" />
          </mxGeometry>
        </mxCell>
        <mxCell id="eSy3FWioJyTbYzm8Jmqo-5" style="edgeStyle=orthogonalEdgeStyle;rounded=0;orthogonalLoop=1;jettySize=auto;html=1;exitX=0.5;exitY=0.86;exitDx=0;exitDy=0;exitPerimeter=0;entryX=0.5;entryY=0.1;entryDx=0;entryDy=0;entryPerimeter=0;" edge="1" parent="1" source="eSy3FWioJyTbYzm8Jmqo-1" target="eSy3FWioJyTbYzm8Jmqo-2">
          <mxGeometry relative="1" as="geometry" />
        </mxCell>
        <mxCell id="eSy3FWioJyTbYzm8Jmqo-93" value="Upload Dataset" style="edgeLabel;html=1;align=center;verticalAlign=middle;resizable=0;points=[];" vertex="1" connectable="0" parent="eSy3FWioJyTbYzm8Jmqo-5">
          <mxGeometry x="-0.1745" y="1" relative="1" as="geometry">
            <mxPoint as="offset" />
          </mxGeometry>
        </mxCell>
        <mxCell id="eSy3FWioJyTbYzm8Jmqo-1" value="API Consumer" style="shape=image;verticalLabelPosition=middle;labelBackgroundColor=default;verticalAlign=middle;aspect=fixed;imageAspect=0;image=data:image/svg+xml,PHN2ZyB4bWw6c3BhY2U9InByZXNlcnZlIiB2aWV3Qm94PSIwIDAgNDYzIDQ2MyIgeG1sbnM6eGxpbms9Imh0dHA6Ly93d3cudzMub3JnLzE5OTkveGxpbmsiIHhtbG5zPSJodHRwOi8vd3d3LnczLm9yZy8yMDAwL3N2ZyIgaWQ9IkxheWVyXzEiIHZlcnNpb249IjEuMSIgd2lkdGg9IjgwMHB4IiBoZWlnaHQ9IjgwMHB4IiBmaWxsPSIjMDAwMDAwIj4mI3hhOzxnPiYjeGE7CTxnPiYjeGE7CQk8Zz4mI3hhOwkJCTxwYXRoIGQ9Ik00NTUuNSwzNDhINDQ3Vjk5LjVjMC0xNy4zNjktMTQuMTMxLTMxLjUtMzEuNS0zMS41aC0zNjhDMzAuMTMxLDY4LDE2LDgyLjEzMSwxNiw5OS41VjM0OEg3LjUgICAgIGMtNC4xNDIsMC03LjUsMy4zNTgtNy41LDcuNXYxNkMwLDM4NC40NTgsMTAuNTQyLDM5NSwyMy41LDM5NWg0MTZjMTIuOTU4LDAsMjMuNS0xMC41NDIsMjMuNS0yMy41di0xNiAgICAgQzQ2MywzNTEuMzU4LDQ1OS42NDIsMzQ4LDQ1NS41LDM0OHogTTMxLDk5LjVDMzEsOTAuNDAyLDM4LjQwMiw4Myw0Ny41LDgzaDM2OGM5LjA5OCwwLDE2LjUsNy40MDIsMTYuNSwxNi41VjM0OEgzMVY5OS41eiAgICAgIE00NDgsMzcxLjVjMCw0LjY4Ny0zLjgxMyw4LjUtOC41LDguNWgtNDE2Yy00LjY4NywwLTguNS0zLjgxMy04LjUtOC41VjM2M2gxNjkuMDI1Yy0wLjAxMSwwLjE2Ni0wLjAyNSwwLjMzMS0wLjAyNSwwLjUgICAgIGMwLDQuMTQyLDMuMzU4LDcuNSw3LjUsNy41aDgwYzQuMTQyLDAsNy41LTMuMzU4LDcuNS03LjVjMC0wLjE2OS0wLjAxNC0wLjMzNC0wLjAyNS0wLjVINDQ4VjM3MS41eiIvPiYjeGE7CQkJPHBhdGggZD0iTTQwNy41LDEwMGgtMzUyYy00LjE0MiwwLTcuNSwzLjM1OC03LjUsNy41djIxNmMwLDQuMTQyLDMuMzU4LDcuNSw3LjUsNy41aDM1MmM0LjE0MiwwLDcuNS0zLjM1OCw3LjUtNy41di0yMTYgICAgIEM0MTUsMTAzLjM1OCw0MTEuNjQyLDEwMCw0MDcuNSwxMDB6IE00MDAsMzE2SDYzVjExNWgzMzdWMzE2eiIvPiYjeGE7CQk8L2c+JiN4YTsJPC9nPiYjeGE7PC9nPiYjeGE7PC9zdmc+;points=[[0,0,0,0,0],[0,0.25,0,0,0],[0,0.5,0,0,0],[0,0.75,0,0,0],[0.25,0,0,0,0],[0.25,0.86,0,0,0],[0.5,0,0,0,0],[0.5,0.86,0,0,0],[0.75,0,0,0,0],[0.75,0.86,0,0,0],[1,0,0,0,0],[1,0.25,0,0,0],[1,0.5,0,0,0],[1,0.75,0,0,0]];labelPosition=right;align=left;" vertex="1" parent="1">
          <mxGeometry x="330" width="140" height="140" as="geometry" />
        </mxCell>
        <mxCell id="eSy3FWioJyTbYzm8Jmqo-8" style="edgeStyle=orthogonalEdgeStyle;rounded=0;orthogonalLoop=1;jettySize=auto;html=1;exitX=0.5;exitY=0.9;exitDx=0;exitDy=0;exitPerimeter=0;entryX=0.5;entryY=0;entryDx=0;entryDy=0;" edge="1" parent="1" source="eSy3FWioJyTbYzm8Jmqo-2" target="eSy3FWioJyTbYzm8Jmqo-6">
          <mxGeometry relative="1" as="geometry" />
        </mxCell>
        <mxCell id="eSy3FWioJyTbYzm8Jmqo-94" value="Write Dataset to S3" style="edgeLabel;html=1;align=center;verticalAlign=middle;resizable=0;points=[];" vertex="1" connectable="0" parent="eSy3FWioJyTbYzm8Jmqo-8">
          <mxGeometry x="-0.1806" y="1" relative="1" as="geometry">
            <mxPoint as="offset" />
          </mxGeometry>
        </mxCell>
        <mxCell id="eSy3FWioJyTbYzm8Jmqo-2" value="REST Service" style="shape=image;verticalLabelPosition=middle;labelBackgroundColor=default;verticalAlign=middle;aspect=fixed;imageAspect=0;image=data:image/svg+xml,PHN2ZyBjbGFzcz0ic3ZnLWljb24iIHN0eWxlPSJ3aWR0aDogMWVtOyBoZWlnaHQ6IDFlbTt2ZXJ0aWNhbC1hbGlnbjogbWlkZGxlO2ZpbGw6IGN1cnJlbnRDb2xvcjtvdmVyZmxvdzogaGlkZGVuOyIgdmlld0JveD0iMCAwIDEwMjQgMTAyNCIgdmVyc2lvbj0iMS4xIiB4bWxucz0iaHR0cDovL3d3dy53My5vcmcvMjAwMC9zdmciPjxwYXRoIGQ9Ik0zNTcuOTkwNCA4NTguMTEyaC0yMDQuOGMtNS43MzQ0IDAtMTAuMjQtMy42ODY0LTEwLjI0LTYuOTYzMlYxNzIuODUxMmMwLTMuMjc2OCA0LjUwNTYtNi45NjMyIDEwLjI0LTYuOTYzMmg1MzIuNDhjNS43MzQ0IDAgMTAuMjQgMy42ODY0IDEwLjI0IDYuOTYzMnYxMjkuNDMzNmMwIDE2Ljc5MzYgMTMuOTI2NCAzMC43MiAzMC43MiAzMC43MnMzMC43Mi0xMy45MjY0IDMwLjcyLTMwLjcyVjE3Mi44NTEyYzAtMzcuNjgzMi0zMi4zNTg0LTY4LjQwMzItNzEuNjgtNjguNDAzMmgtNTMyLjQ4Yy0zOS4zMjE2IDAtNzEuNjggMzAuNzItNzEuNjggNjguNDAzMnY2NzguMjk3NmMwIDM3LjY4MzIgMzIuMzU4NCA2OC40MDMyIDcxLjY4IDY4LjQwMzJoMjA0LjhjMTYuNzkzNiAwIDMwLjcyLTEzLjkyNjQgMzAuNzItMzAuNzJzLTEzLjkyNjQtMzAuNzItMzAuNzItMzAuNzJ6IiBmaWxsPSIjMjMxODE1Ii8+PHBhdGggZD0iTTI3Ni4wNzA0IDI5Mi44NjRjLTE2Ljc5MzYgMC0zMC43MiAxMy45MjY0LTMwLjcyIDMwLjcyczEzLjkyNjQgMzAuNzIgMzAuNzIgMzAuNzJoMjQ1Ljc2YzE2Ljc5MzYgMCAzMC43Mi0xMy45MjY0IDMwLjcyLTMwLjcycy0xMy45MjY0LTMwLjcyLTMwLjcyLTMwLjcyaC0yNDUuNzZ6TTY2Ni4wMDk2IDM2Ni41OTJjLTE1Mi4zNzEyIDAtMjc2LjQ4IDEyNC4xMDg4LTI3Ni40OCAyNzYuNDhzMTI0LjEwODggMjc2LjQ4IDI3Ni40OCAyNzYuNDggMjc2LjQ4LTEyNC4xMDg4IDI3Ni40OC0yNzYuNDgtMTIzLjY5OTItMjc2LjQ4LTI3Ni40OC0yNzYuNDh6IG0xNjMuNDMwNCAzMTIuMTE1MmMtNi45NjMyIDIuNDU3Ni0xNC4zMzYgNC45MTUyLTIxLjcwODggNi45NjMyIDAuODE5Mi0xMy45MjY0IDEuNjM4NC0yNy44NTI4IDEuNjM4NC00Mi41OTg0cy0wLjQwOTYtMjguNjcyLTEuNjM4NC00Mi41OTg0YzcuNzgyNCAyLjA0OCAxNC43NDU2IDQuNTA1NiAyMS43MDg4IDYuOTYzMiAzOS4zMjE2IDE0LjMzNiA1Mi4wMTkyIDI5LjkwMDggNTIuMDE5MiAzNS4yMjU2LTAuNDA5NiA1LjczNDQtMTMuMTA3MiAyMS4yOTkyLTUyLjAxOTIgMzYuMDQ0OHogbS0xNjMuNDMwNCAxNzkuNDA0OGMtMjEuNzA4OCAwLTQ5LjU2MTYtMzUuNjM1Mi02Ni43NjQ4LTk2LjY2NTYgMjEuNzA4OCAyLjA0OCA0NC4yMzY4IDMuMjc2OCA2Ni43NjQ4IDMuMjc2OHM0NC42NDY0LTEuMjI4OCA2Ni43NjQ4LTMuMjc2OGMtMTYuNzkzNiA2MS4wMzA0LTQ1LjA1NiA5Ni42NjU2LTY2Ljc2NDggOTYuNjY1NnogbTAtMTU0LjgyODhjLTI3LjQ0MzIgMC01My42NTc2LTEuNjM4NC03OC42NDMyLTQuOTE1Mi0yLjA0OC0xNy4yMDMyLTIuODY3Mi0zNS42MzUyLTIuODY3Mi01NS4yOTZzMS4yMjg4LTM3LjY4MzIgMi44NjcyLTU1LjI5NmMyNC41NzYtMy4yNzY4IDUxLjItNC45MTUyIDc4LjY0MzItNC45MTUyIDI3LjQ0MzIgMCA1My42NTc2IDEuNjM4NCA3OC42NDMyIDQuOTE1MiAyLjA0OCAxNy4yMDMyIDIuODY3MiAzNS42MzUyIDIuODY3MiA1NS4yOTZzLTEuMjI4OCAzNy42ODMyLTIuODY3MiA1NS4yOTZjLTI0LjU3NiAzLjI3NjgtNTEuMiA0LjkxNTItNzguNjQzMiA0LjkxNTJ6TTQ1MS4zNzkyIDY0My4wNzJjMC01LjMyNDggMTIuNjk3Ni0yMC44ODk2IDUyLjAxOTItMzUuMjI1NiA2Ljk2MzItMi40NTc2IDE0LjMzNi00LjkxNTIgMjEuNzA4OC02Ljk2MzItMC44MTkyIDEzLjkyNjQtMS42Mzg0IDI3Ljg1MjgtMS42Mzg0IDQyLjU5ODRzMC40MDk2IDI4LjY3MiAxLjYzODQgNDIuNTk4NGMtNy43ODI0LTIuMDQ4LTE0Ljc0NTYtNC41MDU2LTIxLjcwODgtNi45NjMyLTM5LjMyMTYtMTUuMTU1Mi01Mi4wMTkyLTMwLjcyLTUyLjAxOTItMzYuMDQ0OHogbTIxNC42MzA0LTIxNS4wNGMyMS43MDg4IDAgNDkuNTYxNiAzNS42MzUyIDY2Ljc2NDggOTYuNjY1Ni0yMS43MDg4LTIuMDQ4LTQ0LjIzNjgtMy4yNzY4LTY2Ljc2NDgtMy4yNzY4cy00NC42NDY0IDEuMjI4OC02Ni43NjQ4IDMuMjc2OGMxNy4yMDMyLTYxLjAzMDQgNDUuNDY1Ni05Ni42NjU2IDY2Ljc2NDgtOTYuNjY1NnogbTE5Ni4xOTg0IDEyNi45NzZjLTE4Ljg0MTYtOC4xOTItNDAuNTUwNC0xNC43NDU2LTYzLjQ4OC0xOS42NjA4LTYuMTQ0LTI5LjA4MTYtMTQuMzM2LTU1LjcwNTYtMjQuOTg1Ni03OC4yMzM2IDM4LjkxMiAyMi41MjggNzAuMDQxNiA1Ni45MzQ0IDg4LjQ3MzYgOTcuODk0NHogbS0zMDMuNTEzNi05Ny44OTQ0Yy0xMC42NDk2IDIyLjkzNzYtMTguODQxNiA0OS4xNTItMjQuOTg1NiA3OC4yMzM2LTIyLjkzNzYgNS4zMjQ4LTQ0LjY0NjQgMTEuODc4NC02My40ODggMTkuNjYwOCAxOC40MzItNDAuOTYgNDkuNTYxNi03NS4zNjY0IDg4LjQ3MzYtOTcuODk0NHogbS04OC40NzM2IDI3NC4wMjI0YzE4Ljg0MTYgOC4xOTIgNDAuNTUwNCAxNC43NDU2IDYzLjQ4OCAxOS42NjA4IDYuMTQ0IDI5LjA4MTYgMTQuMzM2IDU1LjcwNTYgMjQuOTg1NiA3OC4yMzM2LTM4LjkxMi0yMi4xMTg0LTcwLjA0MTYtNTYuNTI0OC04OC40NzM2LTk3Ljg5NDR6IG0zMDMuNTEzNiA5Ny44OTQ0YzEwLjY0OTYtMjIuOTM3NiAxOC44NDE2LTQ5LjE1MiAyNC45ODU2LTc4LjIzMzYgMjIuOTM3Ni01LjMyNDggNDQuNjQ2NC0xMS44Nzg0IDYzLjQ4OC0xOS42NjA4LTE4LjQzMiA0MS4zNjk2LTQ5LjU2MTYgNzUuNzc2LTg4LjQ3MzYgOTcuODk0NHoiIGZpbGw9IiMyMzE4MTUiLz48L3N2Zz4=;points=[[0.08,0.25,0,0,0],[0.08,0.5,0,0,0],[0.08,0.75,0,0,0],[0.25,0.1,0,0,0],[0.25,0.9,0,0,0],[0.5,0.1,0,0,0],[0.5,0.9,0,0,0],[0.75,0.1,0,0,0],[0.75,0.25,0,0,0],[0.75,0.9,0,0,0],[0.89,0.5,0,0,0],[0.89,0.75,0,0,0]];labelPosition=right;align=left;" vertex="1" parent="1">
          <mxGeometry x="330" y="200" width="140" height="140" as="geometry" />
        </mxCell>
        <mxCell id="eSy3FWioJyTbYzm8Jmqo-10" style="edgeStyle=orthogonalEdgeStyle;rounded=0;orthogonalLoop=1;jettySize=auto;html=1;exitX=0.5;exitY=1;exitDx=0;exitDy=0;entryX=0.5;entryY=0;entryDx=0;entryDy=0;" edge="1" parent="1" source="eSy3FWioJyTbYzm8Jmqo-6" target="eSy3FWioJyTbYzm8Jmqo-9">
          <mxGeometry relative="1" as="geometry" />
        </mxCell>
        <mxCell id="eSy3FWioJyTbYzm8Jmqo-95" value="S3 Object Event" style="edgeLabel;html=1;align=center;verticalAlign=middle;resizable=0;points=[];" vertex="1" connectable="0" parent="eSy3FWioJyTbYzm8Jmqo-10">
          <mxGeometry x="-0.1667" relative="1" as="geometry">
            <mxPoint as="offset" />
          </mxGeometry>
        </mxCell>
        <mxCell id="eSy3FWioJyTbYzm8Jmqo-6" value="MinIO (S3)" style="shape=image;verticalLabelPosition=middle;labelBackgroundColor=default;verticalAlign=middle;aspect=fixed;imageAspect=0;image=data:image/svg+xml,PHN2ZyB2aWV3Qm94PSIwIDAgMTIwIDEzNSIgZGF0YS1uYW1lPSJMYXllciAxIiBpZD0iTGF5ZXJfMSIgeG1sbnM9Imh0dHA6Ly93d3cudzMub3JnLzIwMDAvc3ZnIj48cGF0aCBzdHlsZT0iZmlsbDojZDgzYzM1IiBkPSJNMTEwLjQ0LDI5LjE1LDY4LDQuNjRhMTYsMTYsMCwwLDAtMTYsMEw5LjU2LDI5LjE1QTE2LDE2LDAsMCwwLDEuNTcsNDNWOTJhMTYsMTYsMCwwLDAsOCwxMy44NEw1MiwxMzAuMzZhMTYsMTYsMCwwLDAsMTYsMGw0Mi40NS0yNC41MWExNiwxNiwwLDAsMCw4LTEzLjg0VjQzQTE2LDE2LDAsMCwwLDExMC40NCwyOS4xNVoiLz48cGF0aCBzdHlsZT0iZmlsbDojZmZmIiBkPSJNNzAuODksMzQuMzdsLTkuODEtNC42OVY0N2w5LjgxLDIuMTZabTAsMjUuMDUtOS44MS0xLjI4Vjc2LjQ1bDkuODEtMS4yOFpNNDkuMTEsMTAwLjYzbDkuODEsNC42OVY4OGwtOS44MS0yLjE2Wk04Ny44NSw0Mi4yNVY5Mi4xNGw0LjIzLTIuMjJWNDQuNDdaTTYxLjA4LDEwNS4zMmw5LjgxLTQuNjlWODUuODJMNjEuMDgsODhaTTU4LjkyLDI5LjY4bC05LjgxLDQuNjlWNDkuMThMNTguOTIsNDdaTTYwLDgzLjM0bC02LjU0LDEuMjJMNjAsODZsNi41NC0xLjQ0Wk0yNy45Miw4OS45Mmw0LjIzLDIuMjJWNDIuMjZsLTQuMjMsMi4yMVpNNjAsNTEuNjZsNi41NC0xLjIyTDYwLDQ5bC02LjU0LDEuNDRabTEyLjgyLS40M0w2MCw1My42MmgtLjA3TDQ3LjE4LDUxLjIzVjQ1LjQ1TDM0LjEsNDJWOTIuNEw0Ny4xOCw4OVY4My43N0w2MCw4MS4zOGguMDdsMTIuNzYsMi4zOFY4OUw4NS45LDkyLjRWNDJMNzIuODIsNDUuNDVabTAsMjUuNjRMNjAsNzguNTNoMEw0Ny4xOCw3Ni44N1Y1Ny43Mkw2MCw1Ni4wNmgwbDEyLjc3LDEuNjZabS0yMy43MS0xLjcsOS44MSwxLjI4VjU4LjE0bC05LjgxLDEuMjhaIi8+PC9zdmc+;labelPosition=right;align=left;" vertex="1" parent="1">
          <mxGeometry x="340" y="410" width="120" height="135" as="geometry" />
        </mxCell>
        <mxCell id="eSy3FWioJyTbYzm8Jmqo-12" style="edgeStyle=orthogonalEdgeStyle;rounded=0;orthogonalLoop=1;jettySize=auto;html=1;exitX=0.5;exitY=1;exitDx=0;exitDy=0;entryX=0.5;entryY=0;entryDx=0;entryDy=0;" edge="1" parent="1" source="eSy3FWioJyTbYzm8Jmqo-9" target="eSy3FWioJyTbYzm8Jmqo-11">
          <mxGeometry relative="1" as="geometry">
            <Array as="points">
              <mxPoint x="400" y="810" />
              <mxPoint x="400" y="810" />
            </Array>
          </mxGeometry>
        </mxCell>
        <mxCell id="eSy3FWioJyTbYzm8Jmqo-96" value="S3 Object Event" style="edgeLabel;html=1;align=center;verticalAlign=middle;resizable=0;points=[];" vertex="1" connectable="0" parent="eSy3FWioJyTbYzm8Jmqo-12">
          <mxGeometry x="-0.1668" y="1" relative="1" as="geometry">
            <mxPoint as="offset" />
          </mxGeometry>
        </mxCell>
        <mxCell id="eSy3FWioJyTbYzm8Jmqo-9" value="Global RabbitMQ" style="shape=image;verticalLabelPosition=middle;labelBackgroundColor=default;verticalAlign=middle;aspect=fixed;imageAspect=0;image=data:image/svg+xml,PHN2ZyB2aWV3Qm94PSIwIDAgMTIwIDEzNSIgZGF0YS1uYW1lPSJMYXllciAxIiBpZD0iTGF5ZXJfMSIgeG1sbnM9Imh0dHA6Ly93d3cudzMub3JnLzIwMDAvc3ZnIj48ZGVmcz48c3R5bGU+LmNscy0xe2ZpbGw6I2Y3NjMwMDt9LmNscy0ye2ZpbGw6I2ZmZjt9PC9zdHlsZT48L2RlZnM+PHRpdGxlPjAxX0lOU1RBTkFfSWNvblNldDwvdGl0bGU+PHBhdGggZD0iTTUyLDQuNjQsOS41NiwyOS4xNUExNiwxNiwwLDAsMCwxLjU3LDQzVjkyYTE2LDE2LDAsMCwwLDgsMTMuODRMNTIsMTMwLjM2YTE2LDE2LDAsMCwwLDE2LDBsNDIuNDUtMjQuNTFhMTYsMTYsMCwwLDAsOC0xMy44NFY0M2ExNiwxNiwwLDAsMC04LTEzLjg0TDY4LDQuNjRBMTYsMTYsMCwwLDAsNTIsNC42NFoiIGNsYXNzPSJjbHMtMSIvPjxwYXRoIGQ9Ik04Ny43MSw2Ni4yNGMuMDgtMi44My0uMzctNC40LTMuODctNC41NXMtMTAuMDctLjM3LTEzLjY0LS4zNy0zLjU4LTEuMTItMy41OC00LjU0VjQzLjczYzAtMy4yOS0uMDgtNS4wNy01Ljc3LTUuMDdzLTUuOTMsMi01LjkzLDUuMjJWNTYuNGMwLDQtLjUyLDQuOTItNS4wNiw0Ljkycy00LjQtMS45NC00LjQtNC44NVY0NWMwLTQuNjItLjIzLTYuMzQtNi02LjM0UzMzLjY3LDQxLDMzLjY3LDQ1VjkwLjY4YzAsNC42MywxLDUuNjcsNS42Nyw1LjY3SDgxLjgyYzUuMzcsMCw1LjY2LTEuNDksNS44OS01LjZTODcuNjQsNjkuMDcsODcuNzEsNjYuMjRaTTc1Ljg2LDgwLjMzQTIuOTIsMi45MiwwLDAsMSw3Myw4My4yNEg2OS41MmEyLjkyLDIuOTIsMCwwLDEtMi45MS0yLjkxVjc2LjlBMi45MiwyLjkyLDAsMCwxLDY5LjUyLDc0SDczYTIuOTIsMi45MiwwLDAsMSwyLjkxLDIuOTFaIiBjbGFzcz0iY2xzLTIiLz48L3N2Zz4=;labelPosition=right;align=left;" vertex="1" parent="1">
          <mxGeometry x="340" y="630" width="120" height="135" as="geometry" />
        </mxCell>
        <mxCell id="eSy3FWioJyTbYzm8Jmqo-25" style="edgeStyle=none;rounded=0;orthogonalLoop=1;jettySize=auto;html=1;exitX=0.5;exitY=1;exitDx=0;exitDy=0;exitPerimeter=0;entryX=0.5;entryY=0;entryDx=0;entryDy=0;" edge="1" parent="1" source="eSy3FWioJyTbYzm8Jmqo-11" target="eSy3FWioJyTbYzm8Jmqo-13">
          <mxGeometry relative="1" as="geometry" />
        </mxCell>
        <mxCell id="eSy3FWioJyTbYzm8Jmqo-26" style="edgeStyle=none;rounded=0;orthogonalLoop=1;jettySize=auto;html=1;exitX=0.5;exitY=1;exitDx=0;exitDy=0;exitPerimeter=0;entryX=0.5;entryY=0;entryDx=0;entryDy=0;" edge="1" parent="1" source="eSy3FWioJyTbYzm8Jmqo-11" target="eSy3FWioJyTbYzm8Jmqo-14">
          <mxGeometry relative="1" as="geometry" />
        </mxCell>
        <mxCell id="eSy3FWioJyTbYzm8Jmqo-27" style="edgeStyle=none;rounded=0;orthogonalLoop=1;jettySize=auto;html=1;exitX=0.5;exitY=1;exitDx=0;exitDy=0;exitPerimeter=0;entryX=0.5;entryY=0;entryDx=0;entryDy=0;" edge="1" parent="1" source="eSy3FWioJyTbYzm8Jmqo-11" target="eSy3FWioJyTbYzm8Jmqo-15">
          <mxGeometry relative="1" as="geometry" />
        </mxCell>
        <mxCell id="eSy3FWioJyTbYzm8Jmqo-28" style="edgeStyle=none;rounded=0;orthogonalLoop=1;jettySize=auto;html=1;exitX=0.5;exitY=1;exitDx=0;exitDy=0;exitPerimeter=0;entryX=0.5;entryY=0;entryDx=0;entryDy=0;" edge="1" parent="1" source="eSy3FWioJyTbYzm8Jmqo-11" target="eSy3FWioJyTbYzm8Jmqo-16">
          <mxGeometry relative="1" as="geometry" />
        </mxCell>
        <mxCell id="eSy3FWioJyTbYzm8Jmqo-29" style="edgeStyle=none;rounded=0;orthogonalLoop=1;jettySize=auto;html=1;exitX=0.5;exitY=1;exitDx=0;exitDy=0;exitPerimeter=0;entryX=0.5;entryY=0;entryDx=0;entryDy=0;" edge="1" parent="1" source="eSy3FWioJyTbYzm8Jmqo-11" target="eSy3FWioJyTbYzm8Jmqo-17">
          <mxGeometry relative="1" as="geometry" />
        </mxCell>
        <mxCell id="eSy3FWioJyTbYzm8Jmqo-30" style="edgeStyle=none;rounded=0;orthogonalLoop=1;jettySize=auto;html=1;exitX=0.5;exitY=1;exitDx=0;exitDy=0;exitPerimeter=0;entryX=0.5;entryY=0;entryDx=0;entryDy=0;" edge="1" parent="1" source="eSy3FWioJyTbYzm8Jmqo-11" target="eSy3FWioJyTbYzm8Jmqo-18">
          <mxGeometry relative="1" as="geometry" />
        </mxCell>
        <mxCell id="eSy3FWioJyTbYzm8Jmqo-11" value="Event Router" style="shape=image;verticalLabelPosition=middle;labelBackgroundColor=default;verticalAlign=middle;aspect=fixed;imageAspect=0;image=data:image/svg+xml,PHN2ZyBmaWxsPSIjMDAwMDAwIiBoZWlnaHQ9IjgwMHB4IiB3aWR0aD0iODAwcHgiIHZlcnNpb249IjEuMSIgaWQ9IkxheWVyXzEiIHhtbG5zPSJodHRwOi8vd3d3LnczLm9yZy8yMDAwL3N2ZyIgeG1sbnM6eGxpbms9Imh0dHA6Ly93d3cudzMub3JnLzE5OTkveGxpbmsiIHZpZXdCb3g9IjAgMCA0ODAgNDgwIiB4bWw6c3BhY2U9InByZXNlcnZlIj4mI3hhOzxnPiYjeGE7CTxnPiYjeGE7CQk8Zz4mI3hhOwkJCTxwYXRoIGQ9Ik0yNDAsMEMxMDcuNjY0LDAsMCwxMDcuNjY0LDAsMjQwczEwNy42NjQsMjQwLDI0MCwyNDBzMjQwLTEwNy42NjQsMjQwLTI0MFMzNzIuMzM2LDAsMjQwLDB6IE0yNDAsNDYwICAgICBjLTEyMS4zMDksMC0yMjAtOTguNjkxLTIyMC0yMjBTMTE4LjY5MSwyMCwyNDAsMjBzMjIwLDk4LjY5MSwyMjAsMjIwUzM2MS4zMDksNDYwLDI0MCw0NjB6Ii8+JiN4YTsJCQk8cGF0aCBkPSJNNDEwLDE5NC45OTloLTI3LjA1OGMtMi42NDMtOC40NC02LTE2LjU2LTEwLjAzLTI0LjI3MWwxOS4xNTgtMTkuMTU4YzMuNzc2LTMuNzc1LDUuODU0LTguNzksNS44NTQtMTQuMTIxICAgICBjMC01LjMzMi0yLjA4LTEwLjM0Ny01Ljg1NC0xNC4xMjFsLTM1LjM5OS0zNS4zOTljLTMuNzc1LTMuNzc1LTguNzktNS44NTQtMTQuMTIyLTUuODU0Yy01LjMzMSwwLTEwLjM0NiwyLjA3OS0xNC4xMjEsNS44NTQgICAgIGwtMTkuMTU4LDE5LjE1OGMtNy43MTEtNC4wMy0xNS44MzItNy4zODYtMjQuMjcxLTEwLjAzVjcwYzAtMTEuMDI4LTguOTcyLTIwLTIwLTIwaC01MGMtMTEuMDI4LDAtMjAsOC45NzItMjAsMjB2MjcuMDU4ICAgICBjLTguNDQsMi42NDMtMTYuNTYsNi0yNC4yNzEsMTAuMDNMMTUxLjU3LDg3LjkzYy0zLjc3NS0zLjc3Ni04Ljc5LTUuODU0LTE0LjEyMS01Ljg1NGMtNS4zMzIsMC0xMC4zNDcsMi4wOC0xNC4xMjEsNS44NTQgICAgIGwtMzUuMzk5LDM1LjM5OWMtMy43NzUsMy43NzUtNS44NTQsOC43OS01Ljg1NCwxNC4xMjJjMCw1LjMzMSwyLjA3OSwxMC4zNDYsNS44NTQsMTQuMTIxbDE5LjE1OCwxOS4xNTggICAgIGMtNC4wMyw3LjcxMS03LjM4NiwxNS44MzItMTAuMDMsMjQuMjcxSDcwYy0xMS4wMjgsMC0yMCw4Ljk3Mi0yMCwyMHY1MGMwLDExLjAyOCw4Ljk3MiwyMCwyMCwyMGgyNy4wNTcgICAgIGMyLjY0Myw4LjQ0LDYsMTYuNTYsMTAuMDMsMjQuMjcxTDg3LjkyOSwzMjguNDNjLTMuNzc2LDMuNzc1LTUuODU0LDguNzktNS44NTQsMTQuMTIxYzAsNS4zMzIsMi4wOCwxMC4zNDcsNS44NTQsMTQuMTIxICAgICBsMzUuMzk5LDM1LjM5OWMzLjc3NSwzLjc3NSw4Ljc5LDUuODU0LDE0LjEyMiw1Ljg1NGM1LjMzMSwwLDEwLjM0Ni0yLjA3OSwxNC4xMjEtNS44NTRsMTkuMTU4LTE5LjE1OCAgICAgYzcuNzExLDQuMDMsMTUuODMyLDcuMzg2LDI0LjI3MSwxMC4wM1Y0MTBjMCwxMS4wMjgsOC45NzIsMjAsMjAsMjBoNTBjMTEuMDI4LDAsMjAtOC45NzIsMjAuMDAxLTIwdi0yNy4wNTggICAgIGM4LjQ0LTIuNjQzLDE2LjU2LTYsMjQuMjcxLTEwLjAzbDE5LjE1OCwxOS4xNThjMy43NzUsMy43NzYsOC43OSw1Ljg1NCwxNC4xMjEsNS44NTRjNS4zMzIsMCwxMC4zNDctMi4wOCwxNC4xMjEtNS44NTQgICAgIGwzNS4zOTktMzUuMzk5YzMuNzc1LTMuNzc1LDUuODU0LTguNzksNS44NTQtMTQuMTIyYzAtNS4zMzEtMi4wNzktMTAuMzQ2LTUuODU0LTE0LjEyMWwtMTkuMTU4LTE5LjE1OCAgICAgYzQuMDMtNy43MTEsNy4zODYtMTUuODMyLDEwLjAzLTI0LjI3MUg0MTBjMTEuMDI4LDAsMjAtOC45NzIsMjAtMjB2LTUwQzQzMCwyMDMuOTcxLDQyMS4wMjgsMTk0Ljk5OSw0MTAsMTk0Ljk5OXogTTQxMCwyNjQuOTk4ICAgICBoLTM0LjU5OGMtNC41NjIsMC04LjU0NCwzLjA4Ni05LjY4NCw3LjUwM2MtMy4wNjksMTEuOTAxLTcuNzE2LDIzLjEzMy0xMy44MTMsMzMuMzg3Yy0yLjMzNywzLjkzMS0xLjcxLDguOTQ4LDEuNTI0LDEyLjE4MiAgICAgbDI0LjUsMjQuNDU3bC0zNS4zNTcsMzUuNGwtMjQuNS0yNC41Yy0zLjIzNi0zLjIzNS04LjI1My0zLjg2LTEyLjE4Mi0xLjUyNGMtMTAuMjU0LDYuMDk3LTIxLjQ4NywxMC43NDUtMzMuMzg3LDEzLjgxMyAgICAgYy00LjQxNywxLjE0LTcuNTAzLDUuMTIyLTcuNTAzLDkuNjg0VjQxMGgtNTB2LTM0LjU5OWMwLTQuNTYyLTMuMDg2LTguNTQ0LTcuNTAzLTkuNjg0ICAgICBjLTExLjkwMS0zLjA2OS0yMy4xMzMtNy43MTYtMzMuMzg3LTEzLjgxM2MtMS41ODctMC45NDQtMy4zNTMtMS40MDQtNS4xMDctMS40MDRjLTIuNTg2LDAtNS4xNDcsMS4wMDItNy4wNzMsMi45MzFsLTI0LjQ1NywyNC41ICAgICBsLTM1LjQtMzUuMzU3bDI0LjUtMjQuNWMzLjIzNC0zLjIzNSwzLjg2MS04LjI1MSwxLjUyNC0xMi4xODJjLTYuMDk3LTEwLjI1NC0xMC43NDUtMjEuNDg3LTEzLjgxMy0zMy4zODcgICAgIGMtMS4xNC00LjQxNy01LjEyMi03LjUwMy05LjY4NC03LjUwM0g3MHYtNTBoMzQuNTk2YzQuNTYyLDAsOC41NDQtMy4wODYsOS42ODQtNy41MDNjMy4wNjktMTEuOTAxLDcuNzE2LTIzLjEzMywxMy44MTMtMzMuMzg3ICAgICBjMi4zMzctMy45MzEsMS43MS04Ljk0OC0xLjUyNC0xMi4xODJsLTI0LjUtMjQuNDU3bDM1LjM1Ny0zNS40bDI0LjUsMjQuNWMzLjIzNiwzLjIzNSw4LjI1MywzLjg2MSwxMi4xODIsMS41MjQgICAgIGMxMC4yNTQtNi4wOTcsMjEuNDg3LTEwLjc0NSwzMy4zODctMTMuODEzYzQuNDE3LTEuMTQsNy41MDMtNS4xMjIsNy41MDMtOS42ODRWNzBoNTB2MzQuNTk2YzAsNC41NjIsMy4wODYsOC41NDQsNy41MDMsOS42ODQgICAgIGMxMS45MDEsMy4wNjksMjMuMTMzLDcuNzE2LDMzLjM4NywxMy44MTNjMy45MjksMi4zMzcsOC45NDcsMS43MDksMTIuMTgyLTEuNTI0bDI0LjQ1Ny0yNC41bDM1LjQsMzUuMzU3bC0yNC41LDI0LjUgICAgIGMtMy4yMzQsMy4yMzUtMy44NjEsOC4yNTEtMS41MjQsMTIuMTgyYzYuMDk3LDEwLjI1NCwxMC43NDUsMjEuNDg3LDEzLjgxMywzMy4zODdjMS4xNCw0LjQxNyw1LjEyMiw3LjUwMyw5LjY4NCw3LjUwM0g0MTAgICAgIFYyNjQuOTk4eiIvPiYjeGE7CQkJPHBhdGggZD0iTTMzMS41ODUsMjkyLjQ3NWwtNDAtMzVsLTEzLjE3LDE1LjA1MUwyOTguMzg2LDI5MEgyNDBjLTI3LjU3LDAtNTAtMjIuNDMtNTAtNTBoLTIwYzAsMzguNTk4LDMxLjQwMiw3MCw3MCw3MGg1OC4zODYgICAgIGwtMTkuOTcxLDE3LjQ3NWwxMy4xNywxNS4wNTFsNDAtMzVjMi4xNy0xLjg5OCwzLjQxNS00LjY0MiwzLjQxNS03LjUyNVMzMzMuNzU1LDI5NC4zNzMsMzMxLjU4NSwyOTIuNDc1eiIvPiYjeGE7CQkJPHBhdGggZD0iTTIwMS41ODUsMjA3LjQ3M0wxODEuNjE0LDE5MEgyNDBjMjcuNTcsMCw1MCwyMi40Myw1MCw1MGgyMGMwLTM4LjU5OC0zMS40MDItNzAtNzAtNzBoLTU4LjM4NmwxOS45NzEtMTcuNDc1ICAgICBsLTEzLjE3LTE1LjA1MWwtNDAsMzVjLTIuMTcsMS44OTgtMy40MTUsNC42NDItMy40MTUsNy41MjVzMS4yNDUsNS42MjcsMy40MTUsNy41MjVsNDAsMzVMMjAxLjU4NSwyMDcuNDczeiIvPiYjeGE7CQk8L2c+JiN4YTsJPC9nPiYjeGE7PC9nPiYjeGE7PC9zdmc+;labelPosition=right;align=left;points=[[0,0.5,0,0,0],[0.06,0.25,0,0,0],[0.06,0.75,0,0,0],[0.25,0.06,0,0,0],[0.25,0.94,0,0,0],[0.5,0,0,0,0],[0.5,1,0,0,0],[0.75,0.06,0,0,0],[0.75,0.94,0,0,0],[0.94,0.25,0,0,0],[0.94,0.75,0,0,0],[1,0.5,0,0,0]];" vertex="1" parent="1">
          <mxGeometry x="330" y="850" width="140" height="140" as="geometry" />
        </mxCell>
        <mxCell id="eSy3FWioJyTbYzm8Jmqo-39" style="edgeStyle=none;rounded=0;orthogonalLoop=1;jettySize=auto;html=1;exitX=0.5;exitY=1;exitDx=0;exitDy=0;entryX=0.5;entryY=0;entryDx=0;entryDy=0;entryPerimeter=0;" edge="1" parent="1" source="eSy3FWioJyTbYzm8Jmqo-13" target="eSy3FWioJyTbYzm8Jmqo-32">
          <mxGeometry relative="1" as="geometry" />
        </mxCell>
        <mxCell id="eSy3FWioJyTbYzm8Jmqo-13" value="Hard Delete&#xa;Triggers&#xa;" style="shape=image;verticalLabelPosition=bottom;labelBackgroundColor=default;verticalAlign=top;aspect=fixed;imageAspect=0;image=data:image/svg+xml,PHN2ZyBmaWxsPSIjMDAwMDAwIiB3aWR0aD0iODAwcHgiIGhlaWdodD0iODAwcHgiIHZpZXdCb3g9IjAgMCAzMiAzMiIgaWQ9Imljb24iIHhtbG5zPSJodHRwOi8vd3d3LnczLm9yZy8yMDAwL3N2ZyI+JiN4YTsgIDxkZWZzPiYjeGE7ICAgIDxzdHlsZT4mI3hhOyAgICAgIC5jbHMtMSB7JiN4YTsgICAgICAgIGZpbGw6IG5vbmU7JiN4YTsgICAgICB9JiN4YTsgICAgPC9zdHlsZT4mI3hhOyAgPC9kZWZzPiYjeGE7ICA8cGF0aCBkPSJNMjgsMjhINGEyLjAwMjEsMi4wMDIxLDAsMCwxLTItMlYyMUg0djVIMjhWMjFoMnY1QTIuMDAyMSwyLjAwMjEsMCwwLDEsMjgsMjhaIiB0cmFuc2Zvcm09InRyYW5zbGF0ZSgwIDApIi8+JiN4YTsgIDxyZWN0IHg9IjciIHk9IjIxIiB3aWR0aD0iMTgiIGhlaWdodD0iMiIvPiYjeGE7ICA8cmVjdCB4PSI3IiB5PSIxNiIgd2lkdGg9IjE4IiBoZWlnaHQ9IjIiLz4mI3hhOyAgPHJlY3QgeD0iNyIgeT0iMTEiIHdpZHRoPSIxOCIgaGVpZ2h0PSIyIi8+JiN4YTsgIDxyZWN0IHg9IjciIHk9IjYiIHdpZHRoPSIxOCIgaGVpZ2h0PSIyIi8+JiN4YTsgIDxyZWN0IGlkPSJfVHJhbnNwYXJlbnRfUmVjdGFuZ2xlXyIgZGF0YS1uYW1lPSImbHQ7VHJhbnNwYXJlbnQgUmVjdGFuZ2xlJmd0OyIgY2xhc3M9ImNscy0xIiB3aWR0aD0iMzIiIGhlaWdodD0iMzIiLz4mI3hhOzwvc3ZnPg==;" vertex="1" parent="1">
          <mxGeometry x="-220" y="1090" width="140" height="140" as="geometry" />
        </mxCell>
        <mxCell id="eSy3FWioJyTbYzm8Jmqo-40" style="edgeStyle=none;rounded=0;orthogonalLoop=1;jettySize=auto;html=1;exitX=0.5;exitY=1;exitDx=0;exitDy=0;entryX=0.5;entryY=0;entryDx=0;entryDy=0;entryPerimeter=0;" edge="1" parent="1" source="eSy3FWioJyTbYzm8Jmqo-14" target="eSy3FWioJyTbYzm8Jmqo-33">
          <mxGeometry relative="1" as="geometry" />
        </mxCell>
        <mxCell id="eSy3FWioJyTbYzm8Jmqo-14" value="Import&#xa;Triggers&#xa;" style="shape=image;verticalLabelPosition=bottom;labelBackgroundColor=default;verticalAlign=top;aspect=fixed;imageAspect=0;image=data:image/svg+xml,PHN2ZyBmaWxsPSIjMDAwMDAwIiB3aWR0aD0iODAwcHgiIGhlaWdodD0iODAwcHgiIHZpZXdCb3g9IjAgMCAzMiAzMiIgaWQ9Imljb24iIHhtbG5zPSJodHRwOi8vd3d3LnczLm9yZy8yMDAwL3N2ZyI+JiN4YTsgIDxkZWZzPiYjeGE7ICAgIDxzdHlsZT4mI3hhOyAgICAgIC5jbHMtMSB7JiN4YTsgICAgICAgIGZpbGw6IG5vbmU7JiN4YTsgICAgICB9JiN4YTsgICAgPC9zdHlsZT4mI3hhOyAgPC9kZWZzPiYjeGE7ICA8cGF0aCBkPSJNMjgsMjhINGEyLjAwMjEsMi4wMDIxLDAsMCwxLTItMlYyMUg0djVIMjhWMjFoMnY1QTIuMDAyMSwyLjAwMjEsMCwwLDEsMjgsMjhaIiB0cmFuc2Zvcm09InRyYW5zbGF0ZSgwIDApIi8+JiN4YTsgIDxyZWN0IHg9IjciIHk9IjIxIiB3aWR0aD0iMTgiIGhlaWdodD0iMiIvPiYjeGE7ICA8cmVjdCB4PSI3IiB5PSIxNiIgd2lkdGg9IjE4IiBoZWlnaHQ9IjIiLz4mI3hhOyAgPHJlY3QgeD0iNyIgeT0iMTEiIHdpZHRoPSIxOCIgaGVpZ2h0PSIyIi8+JiN4YTsgIDxyZWN0IHg9IjciIHk9IjYiIHdpZHRoPSIxOCIgaGVpZ2h0PSIyIi8+JiN4YTsgIDxyZWN0IGlkPSJfVHJhbnNwYXJlbnRfUmVjdGFuZ2xlXyIgZGF0YS1uYW1lPSImbHQ7VHJhbnNwYXJlbnQgUmVjdGFuZ2xlJmd0OyIgY2xhc3M9ImNscy0xIiB3aWR0aD0iMzIiIGhlaWdodD0iMzIiLz4mI3hhOzwvc3ZnPg==;" vertex="1" parent="1">
          <mxGeometry y="1090" width="140" height="140" as="geometry" />
        </mxCell>
        <mxCell id="eSy3FWioJyTbYzm8Jmqo-41" style="edgeStyle=none;rounded=0;orthogonalLoop=1;jettySize=auto;html=1;exitX=0.5;exitY=1;exitDx=0;exitDy=0;" edge="1" parent="1" source="eSy3FWioJyTbYzm8Jmqo-15" target="eSy3FWioJyTbYzm8Jmqo-34">
          <mxGeometry relative="1" as="geometry" />
        </mxCell>
        <mxCell id="eSy3FWioJyTbYzm8Jmqo-15" value="Install&#xa;Triggers" style="shape=image;verticalLabelPosition=bottom;labelBackgroundColor=default;verticalAlign=top;aspect=fixed;imageAspect=0;image=data:image/svg+xml,PHN2ZyBmaWxsPSIjMDAwMDAwIiB3aWR0aD0iODAwcHgiIGhlaWdodD0iODAwcHgiIHZpZXdCb3g9IjAgMCAzMiAzMiIgaWQ9Imljb24iIHhtbG5zPSJodHRwOi8vd3d3LnczLm9yZy8yMDAwL3N2ZyI+JiN4YTsgIDxkZWZzPiYjeGE7ICAgIDxzdHlsZT4mI3hhOyAgICAgIC5jbHMtMSB7JiN4YTsgICAgICAgIGZpbGw6IG5vbmU7JiN4YTsgICAgICB9JiN4YTsgICAgPC9zdHlsZT4mI3hhOyAgPC9kZWZzPiYjeGE7ICA8cGF0aCBkPSJNMjgsMjhINGEyLjAwMjEsMi4wMDIxLDAsMCwxLTItMlYyMUg0djVIMjhWMjFoMnY1QTIuMDAyMSwyLjAwMjEsMCwwLDEsMjgsMjhaIiB0cmFuc2Zvcm09InRyYW5zbGF0ZSgwIDApIi8+JiN4YTsgIDxyZWN0IHg9IjciIHk9IjIxIiB3aWR0aD0iMTgiIGhlaWdodD0iMiIvPiYjeGE7ICA8cmVjdCB4PSI3IiB5PSIxNiIgd2lkdGg9IjE4IiBoZWlnaHQ9IjIiLz4mI3hhOyAgPHJlY3QgeD0iNyIgeT0iMTEiIHdpZHRoPSIxOCIgaGVpZ2h0PSIyIi8+JiN4YTsgIDxyZWN0IHg9IjciIHk9IjYiIHdpZHRoPSIxOCIgaGVpZ2h0PSIyIi8+JiN4YTsgIDxyZWN0IGlkPSJfVHJhbnNwYXJlbnRfUmVjdGFuZ2xlXyIgZGF0YS1uYW1lPSImbHQ7VHJhbnNwYXJlbnQgUmVjdGFuZ2xlJmd0OyIgY2xhc3M9ImNscy0xIiB3aWR0aD0iMzIiIGhlaWdodD0iMzIiLz4mI3hhOzwvc3ZnPg==;" vertex="1" parent="1">
          <mxGeometry x="220" y="1090" width="140" height="140" as="geometry" />
        </mxCell>
        <mxCell id="eSy3FWioJyTbYzm8Jmqo-42" style="edgeStyle=none;rounded=0;orthogonalLoop=1;jettySize=auto;html=1;exitX=0.5;exitY=1;exitDx=0;exitDy=0;entryX=0.5;entryY=0;entryDx=0;entryDy=0;entryPerimeter=0;" edge="1" parent="1" source="eSy3FWioJyTbYzm8Jmqo-16" target="eSy3FWioJyTbYzm8Jmqo-35">
          <mxGeometry relative="1" as="geometry" />
        </mxCell>
        <mxCell id="eSy3FWioJyTbYzm8Jmqo-16" value="Share&#xa;Triggers" style="shape=image;verticalLabelPosition=bottom;labelBackgroundColor=default;verticalAlign=top;aspect=fixed;imageAspect=0;image=data:image/svg+xml,PHN2ZyBmaWxsPSIjMDAwMDAwIiB3aWR0aD0iODAwcHgiIGhlaWdodD0iODAwcHgiIHZpZXdCb3g9IjAgMCAzMiAzMiIgaWQ9Imljb24iIHhtbG5zPSJodHRwOi8vd3d3LnczLm9yZy8yMDAwL3N2ZyI+JiN4YTsgIDxkZWZzPiYjeGE7ICAgIDxzdHlsZT4mI3hhOyAgICAgIC5jbHMtMSB7JiN4YTsgICAgICAgIGZpbGw6IG5vbmU7JiN4YTsgICAgICB9JiN4YTsgICAgPC9zdHlsZT4mI3hhOyAgPC9kZWZzPiYjeGE7ICA8cGF0aCBkPSJNMjgsMjhINGEyLjAwMjEsMi4wMDIxLDAsMCwxLTItMlYyMUg0djVIMjhWMjFoMnY1QTIuMDAyMSwyLjAwMjEsMCwwLDEsMjgsMjhaIiB0cmFuc2Zvcm09InRyYW5zbGF0ZSgwIDApIi8+JiN4YTsgIDxyZWN0IHg9IjciIHk9IjIxIiB3aWR0aD0iMTgiIGhlaWdodD0iMiIvPiYjeGE7ICA8cmVjdCB4PSI3IiB5PSIxNiIgd2lkdGg9IjE4IiBoZWlnaHQ9IjIiLz4mI3hhOyAgPHJlY3QgeD0iNyIgeT0iMTEiIHdpZHRoPSIxOCIgaGVpZ2h0PSIyIi8+JiN4YTsgIDxyZWN0IHg9IjciIHk9IjYiIHdpZHRoPSIxOCIgaGVpZ2h0PSIyIi8+JiN4YTsgIDxyZWN0IGlkPSJfVHJhbnNwYXJlbnRfUmVjdGFuZ2xlXyIgZGF0YS1uYW1lPSImbHQ7VHJhbnNwYXJlbnQgUmVjdGFuZ2xlJmd0OyIgY2xhc3M9ImNscy0xIiB3aWR0aD0iMzIiIGhlaWdodD0iMzIiLz4mI3hhOzwvc3ZnPg==;" vertex="1" parent="1">
          <mxGeometry x="440" y="1090" width="140" height="140" as="geometry" />
        </mxCell>
        <mxCell id="eSy3FWioJyTbYzm8Jmqo-43" style="edgeStyle=none;rounded=0;orthogonalLoop=1;jettySize=auto;html=1;exitX=0.5;exitY=1;exitDx=0;exitDy=0;entryX=0.5;entryY=0;entryDx=0;entryDy=0;entryPerimeter=0;" edge="1" parent="1" source="eSy3FWioJyTbYzm8Jmqo-17" target="eSy3FWioJyTbYzm8Jmqo-36">
          <mxGeometry relative="1" as="geometry" />
        </mxCell>
        <mxCell id="eSy3FWioJyTbYzm8Jmqo-17" value="Soft Delete&#xa;Triggers&#xa;" style="shape=image;verticalLabelPosition=bottom;labelBackgroundColor=default;verticalAlign=top;aspect=fixed;imageAspect=0;image=data:image/svg+xml,PHN2ZyBmaWxsPSIjMDAwMDAwIiB3aWR0aD0iODAwcHgiIGhlaWdodD0iODAwcHgiIHZpZXdCb3g9IjAgMCAzMiAzMiIgaWQ9Imljb24iIHhtbG5zPSJodHRwOi8vd3d3LnczLm9yZy8yMDAwL3N2ZyI+JiN4YTsgIDxkZWZzPiYjeGE7ICAgIDxzdHlsZT4mI3hhOyAgICAgIC5jbHMtMSB7JiN4YTsgICAgICAgIGZpbGw6IG5vbmU7JiN4YTsgICAgICB9JiN4YTsgICAgPC9zdHlsZT4mI3hhOyAgPC9kZWZzPiYjeGE7ICA8cGF0aCBkPSJNMjgsMjhINGEyLjAwMjEsMi4wMDIxLDAsMCwxLTItMlYyMUg0djVIMjhWMjFoMnY1QTIuMDAyMSwyLjAwMjEsMCwwLDEsMjgsMjhaIiB0cmFuc2Zvcm09InRyYW5zbGF0ZSgwIDApIi8+JiN4YTsgIDxyZWN0IHg9IjciIHk9IjIxIiB3aWR0aD0iMTgiIGhlaWdodD0iMiIvPiYjeGE7ICA8cmVjdCB4PSI3IiB5PSIxNiIgd2lkdGg9IjE4IiBoZWlnaHQ9IjIiLz4mI3hhOyAgPHJlY3QgeD0iNyIgeT0iMTEiIHdpZHRoPSIxOCIgaGVpZ2h0PSIyIi8+JiN4YTsgIDxyZWN0IHg9IjciIHk9IjYiIHdpZHRoPSIxOCIgaGVpZ2h0PSIyIi8+JiN4YTsgIDxyZWN0IGlkPSJfVHJhbnNwYXJlbnRfUmVjdGFuZ2xlXyIgZGF0YS1uYW1lPSImbHQ7VHJhbnNwYXJlbnQgUmVjdGFuZ2xlJmd0OyIgY2xhc3M9ImNscy0xIiB3aWR0aD0iMzIiIGhlaWdodD0iMzIiLz4mI3hhOzwvc3ZnPg==;fontStyle=0" vertex="1" parent="1">
          <mxGeometry x="660" y="1090" width="140" height="140" as="geometry" />
        </mxCell>
        <mxCell id="eSy3FWioJyTbYzm8Jmqo-44" style="edgeStyle=none;rounded=0;orthogonalLoop=1;jettySize=auto;html=1;exitX=0.5;exitY=1;exitDx=0;exitDy=0;entryX=0.5;entryY=0;entryDx=0;entryDy=0;entryPerimeter=0;" edge="1" parent="1" source="eSy3FWioJyTbYzm8Jmqo-18" target="eSy3FWioJyTbYzm8Jmqo-37">
          <mxGeometry relative="1" as="geometry" />
        </mxCell>
        <mxCell id="eSy3FWioJyTbYzm8Jmqo-18" value="Update Meta&#xa;Triggers&#xa;" style="shape=image;verticalLabelPosition=bottom;labelBackgroundColor=default;verticalAlign=top;aspect=fixed;imageAspect=0;image=data:image/svg+xml,PHN2ZyBmaWxsPSIjMDAwMDAwIiB3aWR0aD0iODAwcHgiIGhlaWdodD0iODAwcHgiIHZpZXdCb3g9IjAgMCAzMiAzMiIgaWQ9Imljb24iIHhtbG5zPSJodHRwOi8vd3d3LnczLm9yZy8yMDAwL3N2ZyI+JiN4YTsgIDxkZWZzPiYjeGE7ICAgIDxzdHlsZT4mI3hhOyAgICAgIC5jbHMtMSB7JiN4YTsgICAgICAgIGZpbGw6IG5vbmU7JiN4YTsgICAgICB9JiN4YTsgICAgPC9zdHlsZT4mI3hhOyAgPC9kZWZzPiYjeGE7ICA8cGF0aCBkPSJNMjgsMjhINGEyLjAwMjEsMi4wMDIxLDAsMCwxLTItMlYyMUg0djVIMjhWMjFoMnY1QTIuMDAyMSwyLjAwMjEsMCwwLDEsMjgsMjhaIiB0cmFuc2Zvcm09InRyYW5zbGF0ZSgwIDApIi8+JiN4YTsgIDxyZWN0IHg9IjciIHk9IjIxIiB3aWR0aD0iMTgiIGhlaWdodD0iMiIvPiYjeGE7ICA8cmVjdCB4PSI3IiB5PSIxNiIgd2lkdGg9IjE4IiBoZWlnaHQ9IjIiLz4mI3hhOyAgPHJlY3QgeD0iNyIgeT0iMTEiIHdpZHRoPSIxOCIgaGVpZ2h0PSIyIi8+JiN4YTsgIDxyZWN0IHg9IjciIHk9IjYiIHdpZHRoPSIxOCIgaGVpZ2h0PSIyIi8+JiN4YTsgIDxyZWN0IGlkPSJfVHJhbnNwYXJlbnRfUmVjdGFuZ2xlXyIgZGF0YS1uYW1lPSImbHQ7VHJhbnNwYXJlbnQgUmVjdGFuZ2xlJmd0OyIgY2xhc3M9ImNscy0xIiB3aWR0aD0iMzIiIGhlaWdodD0iMzIiLz4mI3hhOzwvc3ZnPg==;" vertex="1" parent="1">
          <mxGeometry x="880" y="1090" width="140" height="140" as="geometry" />
        </mxCell>
        <mxCell id="eSy3FWioJyTbYzm8Jmqo-32" value="Hard Delete&#xa;Handler&#xa;" style="shape=image;verticalLabelPosition=bottom;labelBackgroundColor=default;verticalAlign=top;aspect=fixed;imageAspect=0;image=data:image/svg+xml,PHN2ZyBmaWxsPSIjMDAwMDAwIiBoZWlnaHQ9IjgwMHB4IiB3aWR0aD0iODAwcHgiIHZlcnNpb249IjEuMSIgaWQ9IkxheWVyXzEiIHhtbG5zPSJodHRwOi8vd3d3LnczLm9yZy8yMDAwL3N2ZyIgeG1sbnM6eGxpbms9Imh0dHA6Ly93d3cudzMub3JnLzE5OTkveGxpbmsiIHZpZXdCb3g9IjAgMCA0ODAgNDgwIiB4bWw6c3BhY2U9InByZXNlcnZlIj4mI3hhOzxnPiYjeGE7CTxnPiYjeGE7CQk8Zz4mI3hhOwkJCTxwYXRoIGQ9Ik0yNDAsMEMxMDcuNjY0LDAsMCwxMDcuNjY0LDAsMjQwczEwNy42NjQsMjQwLDI0MCwyNDBzMjQwLTEwNy42NjQsMjQwLTI0MFMzNzIuMzM2LDAsMjQwLDB6IE0yNDAsNDYwICAgICBjLTEyMS4zMDksMC0yMjAtOTguNjkxLTIyMC0yMjBTMTE4LjY5MSwyMCwyNDAsMjBzMjIwLDk4LjY5MSwyMjAsMjIwUzM2MS4zMDksNDYwLDI0MCw0NjB6Ii8+JiN4YTsJCQk8cGF0aCBkPSJNNDEwLDE5NC45OTloLTI3LjA1OGMtMi42NDMtOC40NC02LTE2LjU2LTEwLjAzLTI0LjI3MWwxOS4xNTgtMTkuMTU4YzMuNzc2LTMuNzc1LDUuODU0LTguNzksNS44NTQtMTQuMTIxICAgICBjMC01LjMzMi0yLjA4LTEwLjM0Ny01Ljg1NC0xNC4xMjFsLTM1LjM5OS0zNS4zOTljLTMuNzc1LTMuNzc1LTguNzktNS44NTQtMTQuMTIyLTUuODU0Yy01LjMzMSwwLTEwLjM0NiwyLjA3OS0xNC4xMjEsNS44NTQgICAgIGwtMTkuMTU4LDE5LjE1OGMtNy43MTEtNC4wMy0xNS44MzItNy4zODYtMjQuMjcxLTEwLjAzVjcwYzAtMTEuMDI4LTguOTcyLTIwLTIwLTIwaC01MGMtMTEuMDI4LDAtMjAsOC45NzItMjAsMjB2MjcuMDU4ICAgICBjLTguNDQsMi42NDMtMTYuNTYsNi0yNC4yNzEsMTAuMDNMMTUxLjU3LDg3LjkzYy0zLjc3NS0zLjc3Ni04Ljc5LTUuODU0LTE0LjEyMS01Ljg1NGMtNS4zMzIsMC0xMC4zNDcsMi4wOC0xNC4xMjEsNS44NTQgICAgIGwtMzUuMzk5LDM1LjM5OWMtMy43NzUsMy43NzUtNS44NTQsOC43OS01Ljg1NCwxNC4xMjJjMCw1LjMzMSwyLjA3OSwxMC4zNDYsNS44NTQsMTQuMTIxbDE5LjE1OCwxOS4xNTggICAgIGMtNC4wMyw3LjcxMS03LjM4NiwxNS44MzItMTAuMDMsMjQuMjcxSDcwYy0xMS4wMjgsMC0yMCw4Ljk3Mi0yMCwyMHY1MGMwLDExLjAyOCw4Ljk3MiwyMCwyMCwyMGgyNy4wNTcgICAgIGMyLjY0Myw4LjQ0LDYsMTYuNTYsMTAuMDMsMjQuMjcxTDg3LjkyOSwzMjguNDNjLTMuNzc2LDMuNzc1LTUuODU0LDguNzktNS44NTQsMTQuMTIxYzAsNS4zMzIsMi4wOCwxMC4zNDcsNS44NTQsMTQuMTIxICAgICBsMzUuMzk5LDM1LjM5OWMzLjc3NSwzLjc3NSw4Ljc5LDUuODU0LDE0LjEyMiw1Ljg1NGM1LjMzMSwwLDEwLjM0Ni0yLjA3OSwxNC4xMjEtNS44NTRsMTkuMTU4LTE5LjE1OCAgICAgYzcuNzExLDQuMDMsMTUuODMyLDcuMzg2LDI0LjI3MSwxMC4wM1Y0MTBjMCwxMS4wMjgsOC45NzIsMjAsMjAsMjBoNTBjMTEuMDI4LDAsMjAtOC45NzIsMjAuMDAxLTIwdi0yNy4wNTggICAgIGM4LjQ0LTIuNjQzLDE2LjU2LTYsMjQuMjcxLTEwLjAzbDE5LjE1OCwxOS4xNThjMy43NzUsMy43NzYsOC43OSw1Ljg1NCwxNC4xMjEsNS44NTRjNS4zMzIsMCwxMC4zNDctMi4wOCwxNC4xMjEtNS44NTQgICAgIGwzNS4zOTktMzUuMzk5YzMuNzc1LTMuNzc1LDUuODU0LTguNzksNS44NTQtMTQuMTIyYzAtNS4zMzEtMi4wNzktMTAuMzQ2LTUuODU0LTE0LjEyMWwtMTkuMTU4LTE5LjE1OCAgICAgYzQuMDMtNy43MTEsNy4zODYtMTUuODMyLDEwLjAzLTI0LjI3MUg0MTBjMTEuMDI4LDAsMjAtOC45NzIsMjAtMjB2LTUwQzQzMCwyMDMuOTcxLDQyMS4wMjgsMTk0Ljk5OSw0MTAsMTk0Ljk5OXogTTQxMCwyNjQuOTk4ICAgICBoLTM0LjU5OGMtNC41NjIsMC04LjU0NCwzLjA4Ni05LjY4NCw3LjUwM2MtMy4wNjksMTEuOTAxLTcuNzE2LDIzLjEzMy0xMy44MTMsMzMuMzg3Yy0yLjMzNywzLjkzMS0xLjcxLDguOTQ4LDEuNTI0LDEyLjE4MiAgICAgbDI0LjUsMjQuNDU3bC0zNS4zNTcsMzUuNGwtMjQuNS0yNC41Yy0zLjIzNi0zLjIzNS04LjI1My0zLjg2LTEyLjE4Mi0xLjUyNGMtMTAuMjU0LDYuMDk3LTIxLjQ4NywxMC43NDUtMzMuMzg3LDEzLjgxMyAgICAgYy00LjQxNywxLjE0LTcuNTAzLDUuMTIyLTcuNTAzLDkuNjg0VjQxMGgtNTB2LTM0LjU5OWMwLTQuNTYyLTMuMDg2LTguNTQ0LTcuNTAzLTkuNjg0ICAgICBjLTExLjkwMS0zLjA2OS0yMy4xMzMtNy43MTYtMzMuMzg3LTEzLjgxM2MtMS41ODctMC45NDQtMy4zNTMtMS40MDQtNS4xMDctMS40MDRjLTIuNTg2LDAtNS4xNDcsMS4wMDItNy4wNzMsMi45MzFsLTI0LjQ1NywyNC41ICAgICBsLTM1LjQtMzUuMzU3bDI0LjUtMjQuNWMzLjIzNC0zLjIzNSwzLjg2MS04LjI1MSwxLjUyNC0xMi4xODJjLTYuMDk3LTEwLjI1NC0xMC43NDUtMjEuNDg3LTEzLjgxMy0zMy4zODcgICAgIGMtMS4xNC00LjQxNy01LjEyMi03LjUwMy05LjY4NC03LjUwM0g3MHYtNTBoMzQuNTk2YzQuNTYyLDAsOC41NDQtMy4wODYsOS42ODQtNy41MDNjMy4wNjktMTEuOTAxLDcuNzE2LTIzLjEzMywxMy44MTMtMzMuMzg3ICAgICBjMi4zMzctMy45MzEsMS43MS04Ljk0OC0xLjUyNC0xMi4xODJsLTI0LjUtMjQuNDU3bDM1LjM1Ny0zNS40bDI0LjUsMjQuNWMzLjIzNiwzLjIzNSw4LjI1MywzLjg2MSwxMi4xODIsMS41MjQgICAgIGMxMC4yNTQtNi4wOTcsMjEuNDg3LTEwLjc0NSwzMy4zODctMTMuODEzYzQuNDE3LTEuMTQsNy41MDMtNS4xMjIsNy41MDMtOS42ODRWNzBoNTB2MzQuNTk2YzAsNC41NjIsMy4wODYsOC41NDQsNy41MDMsOS42ODQgICAgIGMxMS45MDEsMy4wNjksMjMuMTMzLDcuNzE2LDMzLjM4NywxMy44MTNjMy45MjksMi4zMzcsOC45NDcsMS43MDksMTIuMTgyLTEuNTI0bDI0LjQ1Ny0yNC41bDM1LjQsMzUuMzU3bC0yNC41LDI0LjUgICAgIGMtMy4yMzQsMy4yMzUtMy44NjEsOC4yNTEtMS41MjQsMTIuMTgyYzYuMDk3LDEwLjI1NCwxMC43NDUsMjEuNDg3LDEzLjgxMywzMy4zODdjMS4xNCw0LjQxNyw1LjEyMiw3LjUwMyw5LjY4NCw3LjUwM0g0MTAgICAgIFYyNjQuOTk4eiIvPiYjeGE7CQkJPHBhdGggZD0iTTMzMS41ODUsMjkyLjQ3NWwtNDAtMzVsLTEzLjE3LDE1LjA1MUwyOTguMzg2LDI5MEgyNDBjLTI3LjU3LDAtNTAtMjIuNDMtNTAtNTBoLTIwYzAsMzguNTk4LDMxLjQwMiw3MCw3MCw3MGg1OC4zODYgICAgIGwtMTkuOTcxLDE3LjQ3NWwxMy4xNywxNS4wNTFsNDAtMzVjMi4xNy0xLjg5OCwzLjQxNS00LjY0MiwzLjQxNS03LjUyNVMzMzMuNzU1LDI5NC4zNzMsMzMxLjU4NSwyOTIuNDc1eiIvPiYjeGE7CQkJPHBhdGggZD0iTTIwMS41ODUsMjA3LjQ3M0wxODEuNjE0LDE5MEgyNDBjMjcuNTcsMCw1MCwyMi40Myw1MCw1MGgyMGMwLTM4LjU5OC0zMS40MDItNzAtNzAtNzBoLTU4LjM4NmwxOS45NzEtMTcuNDc1ICAgICBsLTEzLjE3LTE1LjA1MWwtNDAsMzVjLTIuMTcsMS44OTgtMy40MTUsNC42NDItMy40MTUsNy41MjVzMS4yNDUsNS42MjcsMy40MTUsNy41MjVsNDAsMzVMMjAxLjU4NSwyMDcuNDczeiIvPiYjeGE7CQk8L2c+JiN4YTsJPC9nPiYjeGE7PC9nPiYjeGE7PC9zdmc+;labelPosition=center;align=center;points=[[0,0.5,0,0,0],[0.06,0.25,0,0,0],[0.06,0.75,0,0,0],[0.25,0.06,0,0,0],[0.25,0.94,0,0,0],[0.5,0,0,0,0],[0.5,1,0,0,0],[0.75,0.06,0,0,0],[0.75,0.94,0,0,0],[0.94,0.25,0,0,0],[0.94,0.75,0,0,0],[1,0.5,0,0,0]];" vertex="1" parent="1">
          <mxGeometry x="-220" y="1370" width="140" height="140" as="geometry" />
        </mxCell>
        <mxCell id="eSy3FWioJyTbYzm8Jmqo-53" style="edgeStyle=none;rounded=0;orthogonalLoop=1;jettySize=auto;html=1;exitX=0.5;exitY=1;exitDx=0;exitDy=0;exitPerimeter=0;entryX=0.5;entryY=0.1;entryDx=0;entryDy=0;entryPerimeter=0;jumpStyle=arc;" edge="1" parent="1" source="eSy3FWioJyTbYzm8Jmqo-33" target="eSy3FWioJyTbYzm8Jmqo-45">
          <mxGeometry relative="1" as="geometry" />
        </mxCell>
        <mxCell id="eSy3FWioJyTbYzm8Jmqo-68" style="edgeStyle=orthogonalEdgeStyle;rounded=0;orthogonalLoop=1;jettySize=auto;html=1;exitX=0.25;exitY=0.06;exitDx=0;exitDy=0;exitPerimeter=0;entryX=1;entryY=0.5;entryDx=0;entryDy=0;jumpStyle=arc;" edge="1" parent="1" source="eSy3FWioJyTbYzm8Jmqo-33" target="eSy3FWioJyTbYzm8Jmqo-66">
          <mxGeometry relative="1" as="geometry">
            <Array as="points">
              <mxPoint x="35" y="1310" />
            </Array>
          </mxGeometry>
        </mxCell>
        <mxCell id="eSy3FWioJyTbYzm8Jmqo-86" style="edgeStyle=orthogonalEdgeStyle;rounded=0;orthogonalLoop=1;jettySize=auto;html=1;exitX=0.25;exitY=0.94;exitDx=0;exitDy=0;exitPerimeter=0;entryX=0;entryY=0.5;entryDx=0;entryDy=0;" edge="1" parent="1" source="eSy3FWioJyTbYzm8Jmqo-33" target="eSy3FWioJyTbYzm8Jmqo-76">
          <mxGeometry relative="1" as="geometry">
            <Array as="points">
              <mxPoint x="35" y="2250" />
            </Array>
          </mxGeometry>
        </mxCell>
        <mxCell id="eSy3FWioJyTbYzm8Jmqo-102" value="Control Data" style="edgeLabel;html=1;align=center;verticalAlign=middle;resizable=0;points=[];" vertex="1" connectable="0" parent="eSy3FWioJyTbYzm8Jmqo-86">
          <mxGeometry x="-0.4446" y="3" relative="1" as="geometry">
            <mxPoint as="offset" />
          </mxGeometry>
        </mxCell>
        <mxCell id="eSy3FWioJyTbYzm8Jmqo-33" value="Import&#xa;Handler&#xa;" style="shape=image;verticalLabelPosition=bottom;labelBackgroundColor=default;verticalAlign=top;aspect=fixed;imageAspect=0;image=data:image/svg+xml,PHN2ZyBmaWxsPSIjMDAwMDAwIiBoZWlnaHQ9IjgwMHB4IiB3aWR0aD0iODAwcHgiIHZlcnNpb249IjEuMSIgaWQ9IkxheWVyXzEiIHhtbG5zPSJodHRwOi8vd3d3LnczLm9yZy8yMDAwL3N2ZyIgeG1sbnM6eGxpbms9Imh0dHA6Ly93d3cudzMub3JnLzE5OTkveGxpbmsiIHZpZXdCb3g9IjAgMCA0ODAgNDgwIiB4bWw6c3BhY2U9InByZXNlcnZlIj4mI3hhOzxnPiYjeGE7CTxnPiYjeGE7CQk8Zz4mI3hhOwkJCTxwYXRoIGQ9Ik0yNDAsMEMxMDcuNjY0LDAsMCwxMDcuNjY0LDAsMjQwczEwNy42NjQsMjQwLDI0MCwyNDBzMjQwLTEwNy42NjQsMjQwLTI0MFMzNzIuMzM2LDAsMjQwLDB6IE0yNDAsNDYwICAgICBjLTEyMS4zMDksMC0yMjAtOTguNjkxLTIyMC0yMjBTMTE4LjY5MSwyMCwyNDAsMjBzMjIwLDk4LjY5MSwyMjAsMjIwUzM2MS4zMDksNDYwLDI0MCw0NjB6Ii8+JiN4YTsJCQk8cGF0aCBkPSJNNDEwLDE5NC45OTloLTI3LjA1OGMtMi42NDMtOC40NC02LTE2LjU2LTEwLjAzLTI0LjI3MWwxOS4xNTgtMTkuMTU4YzMuNzc2LTMuNzc1LDUuODU0LTguNzksNS44NTQtMTQuMTIxICAgICBjMC01LjMzMi0yLjA4LTEwLjM0Ny01Ljg1NC0xNC4xMjFsLTM1LjM5OS0zNS4zOTljLTMuNzc1LTMuNzc1LTguNzktNS44NTQtMTQuMTIyLTUuODU0Yy01LjMzMSwwLTEwLjM0NiwyLjA3OS0xNC4xMjEsNS44NTQgICAgIGwtMTkuMTU4LDE5LjE1OGMtNy43MTEtNC4wMy0xNS44MzItNy4zODYtMjQuMjcxLTEwLjAzVjcwYzAtMTEuMDI4LTguOTcyLTIwLTIwLTIwaC01MGMtMTEuMDI4LDAtMjAsOC45NzItMjAsMjB2MjcuMDU4ICAgICBjLTguNDQsMi42NDMtMTYuNTYsNi0yNC4yNzEsMTAuMDNMMTUxLjU3LDg3LjkzYy0zLjc3NS0zLjc3Ni04Ljc5LTUuODU0LTE0LjEyMS01Ljg1NGMtNS4zMzIsMC0xMC4zNDcsMi4wOC0xNC4xMjEsNS44NTQgICAgIGwtMzUuMzk5LDM1LjM5OWMtMy43NzUsMy43NzUtNS44NTQsOC43OS01Ljg1NCwxNC4xMjJjMCw1LjMzMSwyLjA3OSwxMC4zNDYsNS44NTQsMTQuMTIxbDE5LjE1OCwxOS4xNTggICAgIGMtNC4wMyw3LjcxMS03LjM4NiwxNS44MzItMTAuMDMsMjQuMjcxSDcwYy0xMS4wMjgsMC0yMCw4Ljk3Mi0yMCwyMHY1MGMwLDExLjAyOCw4Ljk3MiwyMCwyMCwyMGgyNy4wNTcgICAgIGMyLjY0Myw4LjQ0LDYsMTYuNTYsMTAuMDMsMjQuMjcxTDg3LjkyOSwzMjguNDNjLTMuNzc2LDMuNzc1LTUuODU0LDguNzktNS44NTQsMTQuMTIxYzAsNS4zMzIsMi4wOCwxMC4zNDcsNS44NTQsMTQuMTIxICAgICBsMzUuMzk5LDM1LjM5OWMzLjc3NSwzLjc3NSw4Ljc5LDUuODU0LDE0LjEyMiw1Ljg1NGM1LjMzMSwwLDEwLjM0Ni0yLjA3OSwxNC4xMjEtNS44NTRsMTkuMTU4LTE5LjE1OCAgICAgYzcuNzExLDQuMDMsMTUuODMyLDcuMzg2LDI0LjI3MSwxMC4wM1Y0MTBjMCwxMS4wMjgsOC45NzIsMjAsMjAsMjBoNTBjMTEuMDI4LDAsMjAtOC45NzIsMjAuMDAxLTIwdi0yNy4wNTggICAgIGM4LjQ0LTIuNjQzLDE2LjU2LTYsMjQuMjcxLTEwLjAzbDE5LjE1OCwxOS4xNThjMy43NzUsMy43NzYsOC43OSw1Ljg1NCwxNC4xMjEsNS44NTRjNS4zMzIsMCwxMC4zNDctMi4wOCwxNC4xMjEtNS44NTQgICAgIGwzNS4zOTktMzUuMzk5YzMuNzc1LTMuNzc1LDUuODU0LTguNzksNS44NTQtMTQuMTIyYzAtNS4zMzEtMi4wNzktMTAuMzQ2LTUuODU0LTE0LjEyMWwtMTkuMTU4LTE5LjE1OCAgICAgYzQuMDMtNy43MTEsNy4zODYtMTUuODMyLDEwLjAzLTI0LjI3MUg0MTBjMTEuMDI4LDAsMjAtOC45NzIsMjAtMjB2LTUwQzQzMCwyMDMuOTcxLDQyMS4wMjgsMTk0Ljk5OSw0MTAsMTk0Ljk5OXogTTQxMCwyNjQuOTk4ICAgICBoLTM0LjU5OGMtNC41NjIsMC04LjU0NCwzLjA4Ni05LjY4NCw3LjUwM2MtMy4wNjksMTEuOTAxLTcuNzE2LDIzLjEzMy0xMy44MTMsMzMuMzg3Yy0yLjMzNywzLjkzMS0xLjcxLDguOTQ4LDEuNTI0LDEyLjE4MiAgICAgbDI0LjUsMjQuNDU3bC0zNS4zNTcsMzUuNGwtMjQuNS0yNC41Yy0zLjIzNi0zLjIzNS04LjI1My0zLjg2LTEyLjE4Mi0xLjUyNGMtMTAuMjU0LDYuMDk3LTIxLjQ4NywxMC43NDUtMzMuMzg3LDEzLjgxMyAgICAgYy00LjQxNywxLjE0LTcuNTAzLDUuMTIyLTcuNTAzLDkuNjg0VjQxMGgtNTB2LTM0LjU5OWMwLTQuNTYyLTMuMDg2LTguNTQ0LTcuNTAzLTkuNjg0ICAgICBjLTExLjkwMS0zLjA2OS0yMy4xMzMtNy43MTYtMzMuMzg3LTEzLjgxM2MtMS41ODctMC45NDQtMy4zNTMtMS40MDQtNS4xMDctMS40MDRjLTIuNTg2LDAtNS4xNDcsMS4wMDItNy4wNzMsMi45MzFsLTI0LjQ1NywyNC41ICAgICBsLTM1LjQtMzUuMzU3bDI0LjUtMjQuNWMzLjIzNC0zLjIzNSwzLjg2MS04LjI1MSwxLjUyNC0xMi4xODJjLTYuMDk3LTEwLjI1NC0xMC43NDUtMjEuNDg3LTEzLjgxMy0zMy4zODcgICAgIGMtMS4xNC00LjQxNy01LjEyMi03LjUwMy05LjY4NC03LjUwM0g3MHYtNTBoMzQuNTk2YzQuNTYyLDAsOC41NDQtMy4wODYsOS42ODQtNy41MDNjMy4wNjktMTEuOTAxLDcuNzE2LTIzLjEzMywxMy44MTMtMzMuMzg3ICAgICBjMi4zMzctMy45MzEsMS43MS04Ljk0OC0xLjUyNC0xMi4xODJsLTI0LjUtMjQuNDU3bDM1LjM1Ny0zNS40bDI0LjUsMjQuNWMzLjIzNiwzLjIzNSw4LjI1MywzLjg2MSwxMi4xODIsMS41MjQgICAgIGMxMC4yNTQtNi4wOTcsMjEuNDg3LTEwLjc0NSwzMy4zODctMTMuODEzYzQuNDE3LTEuMTQsNy41MDMtNS4xMjIsNy41MDMtOS42ODRWNzBoNTB2MzQuNTk2YzAsNC41NjIsMy4wODYsOC41NDQsNy41MDMsOS42ODQgICAgIGMxMS45MDEsMy4wNjksMjMuMTMzLDcuNzE2LDMzLjM4NywxMy44MTNjMy45MjksMi4zMzcsOC45NDcsMS43MDksMTIuMTgyLTEuNTI0bDI0LjQ1Ny0yNC41bDM1LjQsMzUuMzU3bC0yNC41LDI0LjUgICAgIGMtMy4yMzQsMy4yMzUtMy44NjEsOC4yNTEtMS41MjQsMTIuMTgyYzYuMDk3LDEwLjI1NCwxMC43NDUsMjEuNDg3LDEzLjgxMywzMy4zODdjMS4xNCw0LjQxNyw1LjEyMiw3LjUwMyw5LjY4NCw3LjUwM0g0MTAgICAgIFYyNjQuOTk4eiIvPiYjeGE7CQkJPHBhdGggZD0iTTMzMS41ODUsMjkyLjQ3NWwtNDAtMzVsLTEzLjE3LDE1LjA1MUwyOTguMzg2LDI5MEgyNDBjLTI3LjU3LDAtNTAtMjIuNDMtNTAtNTBoLTIwYzAsMzguNTk4LDMxLjQwMiw3MCw3MCw3MGg1OC4zODYgICAgIGwtMTkuOTcxLDE3LjQ3NWwxMy4xNywxNS4wNTFsNDAtMzVjMi4xNy0xLjg5OCwzLjQxNS00LjY0MiwzLjQxNS03LjUyNVMzMzMuNzU1LDI5NC4zNzMsMzMxLjU4NSwyOTIuNDc1eiIvPiYjeGE7CQkJPHBhdGggZD0iTTIwMS41ODUsMjA3LjQ3M0wxODEuNjE0LDE5MEgyNDBjMjcuNTcsMCw1MCwyMi40Myw1MCw1MGgyMGMwLTM4LjU5OC0zMS40MDItNzAtNzAtNzBoLTU4LjM4NmwxOS45NzEtMTcuNDc1ICAgICBsLTEzLjE3LTE1LjA1MWwtNDAsMzVjLTIuMTcsMS44OTgtMy40MTUsNC42NDItMy40MTUsNy41MjVzMS4yNDUsNS42MjcsMy40MTUsNy41MjVsNDAsMzVMMjAxLjU4NSwyMDcuNDczeiIvPiYjeGE7CQk8L2c+JiN4YTsJPC9nPiYjeGE7PC9nPiYjeGE7PC9zdmc+;labelPosition=center;align=center;points=[[0,0.5,0,0,0],[0.06,0.25,0,0,0],[0.06,0.75,0,0,0],[0.25,0.06,0,0,0],[0.25,0.94,0,0,0],[0.5,0,0,0,0],[0.5,1,0,0,0],[0.75,0.06,0,0,0],[0.75,0.94,0,0,0],[0.94,0.25,0,0,0],[0.94,0.75,0,0,0],[1,0.5,0,0,0]];" vertex="1" parent="1">
          <mxGeometry y="1370" width="140" height="140" as="geometry" />
        </mxCell>
        <mxCell id="eSy3FWioJyTbYzm8Jmqo-55" style="edgeStyle=none;rounded=0;orthogonalLoop=1;jettySize=auto;html=1;exitX=0.5;exitY=1;exitDx=0;exitDy=0;exitPerimeter=0;entryX=0.5;entryY=0.1;entryDx=0;entryDy=0;entryPerimeter=0;jumpStyle=arc;" edge="1" parent="1" source="eSy3FWioJyTbYzm8Jmqo-34" target="eSy3FWioJyTbYzm8Jmqo-45">
          <mxGeometry relative="1" as="geometry" />
        </mxCell>
        <mxCell id="eSy3FWioJyTbYzm8Jmqo-70" style="edgeStyle=orthogonalEdgeStyle;rounded=0;orthogonalLoop=1;jettySize=auto;html=1;exitX=0.25;exitY=0.06;exitDx=0;exitDy=0;exitPerimeter=0;entryX=1;entryY=0.5;entryDx=0;entryDy=0;jumpStyle=arc;" edge="1" parent="1" source="eSy3FWioJyTbYzm8Jmqo-34" target="eSy3FWioJyTbYzm8Jmqo-66">
          <mxGeometry relative="1" as="geometry">
            <Array as="points">
              <mxPoint x="255" y="1310" />
            </Array>
          </mxGeometry>
        </mxCell>
        <mxCell id="eSy3FWioJyTbYzm8Jmqo-34" value="Install&#xa;Handler&#xa;" style="shape=image;verticalLabelPosition=bottom;labelBackgroundColor=default;verticalAlign=top;aspect=fixed;imageAspect=0;image=data:image/svg+xml,PHN2ZyBmaWxsPSIjMDAwMDAwIiBoZWlnaHQ9IjgwMHB4IiB3aWR0aD0iODAwcHgiIHZlcnNpb249IjEuMSIgaWQ9IkxheWVyXzEiIHhtbG5zPSJodHRwOi8vd3d3LnczLm9yZy8yMDAwL3N2ZyIgeG1sbnM6eGxpbms9Imh0dHA6Ly93d3cudzMub3JnLzE5OTkveGxpbmsiIHZpZXdCb3g9IjAgMCA0ODAgNDgwIiB4bWw6c3BhY2U9InByZXNlcnZlIj4mI3hhOzxnPiYjeGE7CTxnPiYjeGE7CQk8Zz4mI3hhOwkJCTxwYXRoIGQ9Ik0yNDAsMEMxMDcuNjY0LDAsMCwxMDcuNjY0LDAsMjQwczEwNy42NjQsMjQwLDI0MCwyNDBzMjQwLTEwNy42NjQsMjQwLTI0MFMzNzIuMzM2LDAsMjQwLDB6IE0yNDAsNDYwICAgICBjLTEyMS4zMDksMC0yMjAtOTguNjkxLTIyMC0yMjBTMTE4LjY5MSwyMCwyNDAsMjBzMjIwLDk4LjY5MSwyMjAsMjIwUzM2MS4zMDksNDYwLDI0MCw0NjB6Ii8+JiN4YTsJCQk8cGF0aCBkPSJNNDEwLDE5NC45OTloLTI3LjA1OGMtMi42NDMtOC40NC02LTE2LjU2LTEwLjAzLTI0LjI3MWwxOS4xNTgtMTkuMTU4YzMuNzc2LTMuNzc1LDUuODU0LTguNzksNS44NTQtMTQuMTIxICAgICBjMC01LjMzMi0yLjA4LTEwLjM0Ny01Ljg1NC0xNC4xMjFsLTM1LjM5OS0zNS4zOTljLTMuNzc1LTMuNzc1LTguNzktNS44NTQtMTQuMTIyLTUuODU0Yy01LjMzMSwwLTEwLjM0NiwyLjA3OS0xNC4xMjEsNS44NTQgICAgIGwtMTkuMTU4LDE5LjE1OGMtNy43MTEtNC4wMy0xNS44MzItNy4zODYtMjQuMjcxLTEwLjAzVjcwYzAtMTEuMDI4LTguOTcyLTIwLTIwLTIwaC01MGMtMTEuMDI4LDAtMjAsOC45NzItMjAsMjB2MjcuMDU4ICAgICBjLTguNDQsMi42NDMtMTYuNTYsNi0yNC4yNzEsMTAuMDNMMTUxLjU3LDg3LjkzYy0zLjc3NS0zLjc3Ni04Ljc5LTUuODU0LTE0LjEyMS01Ljg1NGMtNS4zMzIsMC0xMC4zNDcsMi4wOC0xNC4xMjEsNS44NTQgICAgIGwtMzUuMzk5LDM1LjM5OWMtMy43NzUsMy43NzUtNS44NTQsOC43OS01Ljg1NCwxNC4xMjJjMCw1LjMzMSwyLjA3OSwxMC4zNDYsNS44NTQsMTQuMTIxbDE5LjE1OCwxOS4xNTggICAgIGMtNC4wMyw3LjcxMS03LjM4NiwxNS44MzItMTAuMDMsMjQuMjcxSDcwYy0xMS4wMjgsMC0yMCw4Ljk3Mi0yMCwyMHY1MGMwLDExLjAyOCw4Ljk3MiwyMCwyMCwyMGgyNy4wNTcgICAgIGMyLjY0Myw4LjQ0LDYsMTYuNTYsMTAuMDMsMjQuMjcxTDg3LjkyOSwzMjguNDNjLTMuNzc2LDMuNzc1LTUuODU0LDguNzktNS44NTQsMTQuMTIxYzAsNS4zMzIsMi4wOCwxMC4zNDcsNS44NTQsMTQuMTIxICAgICBsMzUuMzk5LDM1LjM5OWMzLjc3NSwzLjc3NSw4Ljc5LDUuODU0LDE0LjEyMiw1Ljg1NGM1LjMzMSwwLDEwLjM0Ni0yLjA3OSwxNC4xMjEtNS44NTRsMTkuMTU4LTE5LjE1OCAgICAgYzcuNzExLDQuMDMsMTUuODMyLDcuMzg2LDI0LjI3MSwxMC4wM1Y0MTBjMCwxMS4wMjgsOC45NzIsMjAsMjAsMjBoNTBjMTEuMDI4LDAsMjAtOC45NzIsMjAuMDAxLTIwdi0yNy4wNTggICAgIGM4LjQ0LTIuNjQzLDE2LjU2LTYsMjQuMjcxLTEwLjAzbDE5LjE1OCwxOS4xNThjMy43NzUsMy43NzYsOC43OSw1Ljg1NCwxNC4xMjEsNS44NTRjNS4zMzIsMCwxMC4zNDctMi4wOCwxNC4xMjEtNS44NTQgICAgIGwzNS4zOTktMzUuMzk5YzMuNzc1LTMuNzc1LDUuODU0LTguNzksNS44NTQtMTQuMTIyYzAtNS4zMzEtMi4wNzktMTAuMzQ2LTUuODU0LTE0LjEyMWwtMTkuMTU4LTE5LjE1OCAgICAgYzQuMDMtNy43MTEsNy4zODYtMTUuODMyLDEwLjAzLTI0LjI3MUg0MTBjMTEuMDI4LDAsMjAtOC45NzIsMjAtMjB2LTUwQzQzMCwyMDMuOTcxLDQyMS4wMjgsMTk0Ljk5OSw0MTAsMTk0Ljk5OXogTTQxMCwyNjQuOTk4ICAgICBoLTM0LjU5OGMtNC41NjIsMC04LjU0NCwzLjA4Ni05LjY4NCw3LjUwM2MtMy4wNjksMTEuOTAxLTcuNzE2LDIzLjEzMy0xMy44MTMsMzMuMzg3Yy0yLjMzNywzLjkzMS0xLjcxLDguOTQ4LDEuNTI0LDEyLjE4MiAgICAgbDI0LjUsMjQuNDU3bC0zNS4zNTcsMzUuNGwtMjQuNS0yNC41Yy0zLjIzNi0zLjIzNS04LjI1My0zLjg2LTEyLjE4Mi0xLjUyNGMtMTAuMjU0LDYuMDk3LTIxLjQ4NywxMC43NDUtMzMuMzg3LDEzLjgxMyAgICAgYy00LjQxNywxLjE0LTcuNTAzLDUuMTIyLTcuNTAzLDkuNjg0VjQxMGgtNTB2LTM0LjU5OWMwLTQuNTYyLTMuMDg2LTguNTQ0LTcuNTAzLTkuNjg0ICAgICBjLTExLjkwMS0zLjA2OS0yMy4xMzMtNy43MTYtMzMuMzg3LTEzLjgxM2MtMS41ODctMC45NDQtMy4zNTMtMS40MDQtNS4xMDctMS40MDRjLTIuNTg2LDAtNS4xNDcsMS4wMDItNy4wNzMsMi45MzFsLTI0LjQ1NywyNC41ICAgICBsLTM1LjQtMzUuMzU3bDI0LjUtMjQuNWMzLjIzNC0zLjIzNSwzLjg2MS04LjI1MSwxLjUyNC0xMi4xODJjLTYuMDk3LTEwLjI1NC0xMC43NDUtMjEuNDg3LTEzLjgxMy0zMy4zODcgICAgIGMtMS4xNC00LjQxNy01LjEyMi03LjUwMy05LjY4NC03LjUwM0g3MHYtNTBoMzQuNTk2YzQuNTYyLDAsOC41NDQtMy4wODYsOS42ODQtNy41MDNjMy4wNjktMTEuOTAxLDcuNzE2LTIzLjEzMywxMy44MTMtMzMuMzg3ICAgICBjMi4zMzctMy45MzEsMS43MS04Ljk0OC0xLjUyNC0xMi4xODJsLTI0LjUtMjQuNDU3bDM1LjM1Ny0zNS40bDI0LjUsMjQuNWMzLjIzNiwzLjIzNSw4LjI1MywzLjg2MSwxMi4xODIsMS41MjQgICAgIGMxMC4yNTQtNi4wOTcsMjEuNDg3LTEwLjc0NSwzMy4zODctMTMuODEzYzQuNDE3LTEuMTQsNy41MDMtNS4xMjIsNy41MDMtOS42ODRWNzBoNTB2MzQuNTk2YzAsNC41NjIsMy4wODYsOC41NDQsNy41MDMsOS42ODQgICAgIGMxMS45MDEsMy4wNjksMjMuMTMzLDcuNzE2LDMzLjM4NywxMy44MTNjMy45MjksMi4zMzcsOC45NDcsMS43MDksMTIuMTgyLTEuNTI0bDI0LjQ1Ny0yNC41bDM1LjQsMzUuMzU3bC0yNC41LDI0LjUgICAgIGMtMy4yMzQsMy4yMzUtMy44NjEsOC4yNTEtMS41MjQsMTIuMTgyYzYuMDk3LDEwLjI1NCwxMC43NDUsMjEuNDg3LDEzLjgxMywzMy4zODdjMS4xNCw0LjQxNyw1LjEyMiw3LjUwMyw5LjY4NCw3LjUwM0g0MTAgICAgIFYyNjQuOTk4eiIvPiYjeGE7CQkJPHBhdGggZD0iTTMzMS41ODUsMjkyLjQ3NWwtNDAtMzVsLTEzLjE3LDE1LjA1MUwyOTguMzg2LDI5MEgyNDBjLTI3LjU3LDAtNTAtMjIuNDMtNTAtNTBoLTIwYzAsMzguNTk4LDMxLjQwMiw3MCw3MCw3MGg1OC4zODYgICAgIGwtMTkuOTcxLDE3LjQ3NWwxMy4xNywxNS4wNTFsNDAtMzVjMi4xNy0xLjg5OCwzLjQxNS00LjY0MiwzLjQxNS03LjUyNVMzMzMuNzU1LDI5NC4zNzMsMzMxLjU4NSwyOTIuNDc1eiIvPiYjeGE7CQkJPHBhdGggZD0iTTIwMS41ODUsMjA3LjQ3M0wxODEuNjE0LDE5MEgyNDBjMjcuNTcsMCw1MCwyMi40Myw1MCw1MGgyMGMwLTM4LjU5OC0zMS40MDItNzAtNzAtNzBoLTU4LjM4NmwxOS45NzEtMTcuNDc1ICAgICBsLTEzLjE3LTE1LjA1MWwtNDAsMzVjLTIuMTcsMS44OTgtMy40MTUsNC42NDItMy40MTUsNy41MjVzMS4yNDUsNS42MjcsMy40MTUsNy41MjVsNDAsMzVMMjAxLjU4NSwyMDcuNDczeiIvPiYjeGE7CQk8L2c+JiN4YTsJPC9nPiYjeGE7PC9nPiYjeGE7PC9zdmc+;labelPosition=center;align=center;points=[[0,0.5,0,0,0],[0.06,0.25,0,0,0],[0.06,0.75,0,0,0],[0.25,0.06,0,0,0],[0.25,0.94,0,0,0],[0.5,0,0,0,0],[0.5,1,0,0,0],[0.75,0.06,0,0,0],[0.75,0.94,0,0,0],[0.94,0.25,0,0,0],[0.94,0.75,0,0,0],[1,0.5,0,0,0]];" vertex="1" parent="1">
          <mxGeometry x="220" y="1370" width="140" height="140" as="geometry" />
        </mxCell>
        <mxCell id="eSy3FWioJyTbYzm8Jmqo-56" style="edgeStyle=none;rounded=0;orthogonalLoop=1;jettySize=auto;html=1;exitX=0.5;exitY=1;exitDx=0;exitDy=0;exitPerimeter=0;entryX=0.5;entryY=0.1;entryDx=0;entryDy=0;entryPerimeter=0;jumpStyle=arc;" edge="1" parent="1" source="eSy3FWioJyTbYzm8Jmqo-35" target="eSy3FWioJyTbYzm8Jmqo-45">
          <mxGeometry relative="1" as="geometry" />
        </mxCell>
        <mxCell id="eSy3FWioJyTbYzm8Jmqo-72" style="edgeStyle=orthogonalEdgeStyle;rounded=0;orthogonalLoop=1;jettySize=auto;html=1;exitX=0.25;exitY=0.06;exitDx=0;exitDy=0;exitPerimeter=0;entryX=1;entryY=0.5;entryDx=0;entryDy=0;jumpStyle=arc;" edge="1" parent="1" source="eSy3FWioJyTbYzm8Jmqo-35" target="eSy3FWioJyTbYzm8Jmqo-66">
          <mxGeometry relative="1" as="geometry">
            <Array as="points">
              <mxPoint x="475" y="1310" />
            </Array>
          </mxGeometry>
        </mxCell>
        <mxCell id="eSy3FWioJyTbYzm8Jmqo-90" style="edgeStyle=orthogonalEdgeStyle;rounded=0;orthogonalLoop=1;jettySize=auto;html=1;exitX=0.94;exitY=0.75;exitDx=0;exitDy=0;exitPerimeter=0;entryX=1;entryY=0.5;entryDx=0;entryDy=0;" edge="1" parent="1" source="eSy3FWioJyTbYzm8Jmqo-35" target="eSy3FWioJyTbYzm8Jmqo-76">
          <mxGeometry relative="1" as="geometry" />
        </mxCell>
        <mxCell id="eSy3FWioJyTbYzm8Jmqo-104" value="Control Data" style="edgeLabel;html=1;align=center;verticalAlign=middle;resizable=0;points=[];" vertex="1" connectable="0" parent="eSy3FWioJyTbYzm8Jmqo-90">
          <mxGeometry x="-0.2625" y="-1" relative="1" as="geometry">
            <mxPoint as="offset" />
          </mxGeometry>
        </mxCell>
        <mxCell id="eSy3FWioJyTbYzm8Jmqo-35" value="Share&#xa;Handler&#xa;" style="shape=image;verticalLabelPosition=bottom;labelBackgroundColor=default;verticalAlign=top;aspect=fixed;imageAspect=0;image=data:image/svg+xml,PHN2ZyBmaWxsPSIjMDAwMDAwIiBoZWlnaHQ9IjgwMHB4IiB3aWR0aD0iODAwcHgiIHZlcnNpb249IjEuMSIgaWQ9IkxheWVyXzEiIHhtbG5zPSJodHRwOi8vd3d3LnczLm9yZy8yMDAwL3N2ZyIgeG1sbnM6eGxpbms9Imh0dHA6Ly93d3cudzMub3JnLzE5OTkveGxpbmsiIHZpZXdCb3g9IjAgMCA0ODAgNDgwIiB4bWw6c3BhY2U9InByZXNlcnZlIj4mI3hhOzxnPiYjeGE7CTxnPiYjeGE7CQk8Zz4mI3hhOwkJCTxwYXRoIGQ9Ik0yNDAsMEMxMDcuNjY0LDAsMCwxMDcuNjY0LDAsMjQwczEwNy42NjQsMjQwLDI0MCwyNDBzMjQwLTEwNy42NjQsMjQwLTI0MFMzNzIuMzM2LDAsMjQwLDB6IE0yNDAsNDYwICAgICBjLTEyMS4zMDksMC0yMjAtOTguNjkxLTIyMC0yMjBTMTE4LjY5MSwyMCwyNDAsMjBzMjIwLDk4LjY5MSwyMjAsMjIwUzM2MS4zMDksNDYwLDI0MCw0NjB6Ii8+JiN4YTsJCQk8cGF0aCBkPSJNNDEwLDE5NC45OTloLTI3LjA1OGMtMi42NDMtOC40NC02LTE2LjU2LTEwLjAzLTI0LjI3MWwxOS4xNTgtMTkuMTU4YzMuNzc2LTMuNzc1LDUuODU0LTguNzksNS44NTQtMTQuMTIxICAgICBjMC01LjMzMi0yLjA4LTEwLjM0Ny01Ljg1NC0xNC4xMjFsLTM1LjM5OS0zNS4zOTljLTMuNzc1LTMuNzc1LTguNzktNS44NTQtMTQuMTIyLTUuODU0Yy01LjMzMSwwLTEwLjM0NiwyLjA3OS0xNC4xMjEsNS44NTQgICAgIGwtMTkuMTU4LDE5LjE1OGMtNy43MTEtNC4wMy0xNS44MzItNy4zODYtMjQuMjcxLTEwLjAzVjcwYzAtMTEuMDI4LTguOTcyLTIwLTIwLTIwaC01MGMtMTEuMDI4LDAtMjAsOC45NzItMjAsMjB2MjcuMDU4ICAgICBjLTguNDQsMi42NDMtMTYuNTYsNi0yNC4yNzEsMTAuMDNMMTUxLjU3LDg3LjkzYy0zLjc3NS0zLjc3Ni04Ljc5LTUuODU0LTE0LjEyMS01Ljg1NGMtNS4zMzIsMC0xMC4zNDcsMi4wOC0xNC4xMjEsNS44NTQgICAgIGwtMzUuMzk5LDM1LjM5OWMtMy43NzUsMy43NzUtNS44NTQsOC43OS01Ljg1NCwxNC4xMjJjMCw1LjMzMSwyLjA3OSwxMC4zNDYsNS44NTQsMTQuMTIxbDE5LjE1OCwxOS4xNTggICAgIGMtNC4wMyw3LjcxMS03LjM4NiwxNS44MzItMTAuMDMsMjQuMjcxSDcwYy0xMS4wMjgsMC0yMCw4Ljk3Mi0yMCwyMHY1MGMwLDExLjAyOCw4Ljk3MiwyMCwyMCwyMGgyNy4wNTcgICAgIGMyLjY0Myw4LjQ0LDYsMTYuNTYsMTAuMDMsMjQuMjcxTDg3LjkyOSwzMjguNDNjLTMuNzc2LDMuNzc1LTUuODU0LDguNzktNS44NTQsMTQuMTIxYzAsNS4zMzIsMi4wOCwxMC4zNDcsNS44NTQsMTQuMTIxICAgICBsMzUuMzk5LDM1LjM5OWMzLjc3NSwzLjc3NSw4Ljc5LDUuODU0LDE0LjEyMiw1Ljg1NGM1LjMzMSwwLDEwLjM0Ni0yLjA3OSwxNC4xMjEtNS44NTRsMTkuMTU4LTE5LjE1OCAgICAgYzcuNzExLDQuMDMsMTUuODMyLDcuMzg2LDI0LjI3MSwxMC4wM1Y0MTBjMCwxMS4wMjgsOC45NzIsMjAsMjAsMjBoNTBjMTEuMDI4LDAsMjAtOC45NzIsMjAuMDAxLTIwdi0yNy4wNTggICAgIGM4LjQ0LTIuNjQzLDE2LjU2LTYsMjQuMjcxLTEwLjAzbDE5LjE1OCwxOS4xNThjMy43NzUsMy43NzYsOC43OSw1Ljg1NCwxNC4xMjEsNS44NTRjNS4zMzIsMCwxMC4zNDctMi4wOCwxNC4xMjEtNS44NTQgICAgIGwzNS4zOTktMzUuMzk5YzMuNzc1LTMuNzc1LDUuODU0LTguNzksNS44NTQtMTQuMTIyYzAtNS4zMzEtMi4wNzktMTAuMzQ2LTUuODU0LTE0LjEyMWwtMTkuMTU4LTE5LjE1OCAgICAgYzQuMDMtNy43MTEsNy4zODYtMTUuODMyLDEwLjAzLTI0LjI3MUg0MTBjMTEuMDI4LDAsMjAtOC45NzIsMjAtMjB2LTUwQzQzMCwyMDMuOTcxLDQyMS4wMjgsMTk0Ljk5OSw0MTAsMTk0Ljk5OXogTTQxMCwyNjQuOTk4ICAgICBoLTM0LjU5OGMtNC41NjIsMC04LjU0NCwzLjA4Ni05LjY4NCw3LjUwM2MtMy4wNjksMTEuOTAxLTcuNzE2LDIzLjEzMy0xMy44MTMsMzMuMzg3Yy0yLjMzNywzLjkzMS0xLjcxLDguOTQ4LDEuNTI0LDEyLjE4MiAgICAgbDI0LjUsMjQuNDU3bC0zNS4zNTcsMzUuNGwtMjQuNS0yNC41Yy0zLjIzNi0zLjIzNS04LjI1My0zLjg2LTEyLjE4Mi0xLjUyNGMtMTAuMjU0LDYuMDk3LTIxLjQ4NywxMC43NDUtMzMuMzg3LDEzLjgxMyAgICAgYy00LjQxNywxLjE0LTcuNTAzLDUuMTIyLTcuNTAzLDkuNjg0VjQxMGgtNTB2LTM0LjU5OWMwLTQuNTYyLTMuMDg2LTguNTQ0LTcuNTAzLTkuNjg0ICAgICBjLTExLjkwMS0zLjA2OS0yMy4xMzMtNy43MTYtMzMuMzg3LTEzLjgxM2MtMS41ODctMC45NDQtMy4zNTMtMS40MDQtNS4xMDctMS40MDRjLTIuNTg2LDAtNS4xNDcsMS4wMDItNy4wNzMsMi45MzFsLTI0LjQ1NywyNC41ICAgICBsLTM1LjQtMzUuMzU3bDI0LjUtMjQuNWMzLjIzNC0zLjIzNSwzLjg2MS04LjI1MSwxLjUyNC0xMi4xODJjLTYuMDk3LTEwLjI1NC0xMC43NDUtMjEuNDg3LTEzLjgxMy0zMy4zODcgICAgIGMtMS4xNC00LjQxNy01LjEyMi03LjUwMy05LjY4NC03LjUwM0g3MHYtNTBoMzQuNTk2YzQuNTYyLDAsOC41NDQtMy4wODYsOS42ODQtNy41MDNjMy4wNjktMTEuOTAxLDcuNzE2LTIzLjEzMywxMy44MTMtMzMuMzg3ICAgICBjMi4zMzctMy45MzEsMS43MS04Ljk0OC0xLjUyNC0xMi4xODJsLTI0LjUtMjQuNDU3bDM1LjM1Ny0zNS40bDI0LjUsMjQuNWMzLjIzNiwzLjIzNSw4LjI1MywzLjg2MSwxMi4xODIsMS41MjQgICAgIGMxMC4yNTQtNi4wOTcsMjEuNDg3LTEwLjc0NSwzMy4zODctMTMuODEzYzQuNDE3LTEuMTQsNy41MDMtNS4xMjIsNy41MDMtOS42ODRWNzBoNTB2MzQuNTk2YzAsNC41NjIsMy4wODYsOC41NDQsNy41MDMsOS42ODQgICAgIGMxMS45MDEsMy4wNjksMjMuMTMzLDcuNzE2LDMzLjM4NywxMy44MTNjMy45MjksMi4zMzcsOC45NDcsMS43MDksMTIuMTgyLTEuNTI0bDI0LjQ1Ny0yNC41bDM1LjQsMzUuMzU3bC0yNC41LDI0LjUgICAgIGMtMy4yMzQsMy4yMzUtMy44NjEsOC4yNTEtMS41MjQsMTIuMTgyYzYuMDk3LDEwLjI1NCwxMC43NDUsMjEuNDg3LDEzLjgxMywzMy4zODdjMS4xNCw0LjQxNyw1LjEyMiw3LjUwMyw5LjY4NCw3LjUwM0g0MTAgICAgIFYyNjQuOTk4eiIvPiYjeGE7CQkJPHBhdGggZD0iTTMzMS41ODUsMjkyLjQ3NWwtNDAtMzVsLTEzLjE3LDE1LjA1MUwyOTguMzg2LDI5MEgyNDBjLTI3LjU3LDAtNTAtMjIuNDMtNTAtNTBoLTIwYzAsMzguNTk4LDMxLjQwMiw3MCw3MCw3MGg1OC4zODYgICAgIGwtMTkuOTcxLDE3LjQ3NWwxMy4xNywxNS4wNTFsNDAtMzVjMi4xNy0xLjg5OCwzLjQxNS00LjY0MiwzLjQxNS03LjUyNVMzMzMuNzU1LDI5NC4zNzMsMzMxLjU4NSwyOTIuNDc1eiIvPiYjeGE7CQkJPHBhdGggZD0iTTIwMS41ODUsMjA3LjQ3M0wxODEuNjE0LDE5MEgyNDBjMjcuNTcsMCw1MCwyMi40Myw1MCw1MGgyMGMwLTM4LjU5OC0zMS40MDItNzAtNzAtNzBoLTU4LjM4NmwxOS45NzEtMTcuNDc1ICAgICBsLTEzLjE3LTE1LjA1MWwtNDAsMzVjLTIuMTcsMS44OTgtMy40MTUsNC42NDItMy40MTUsNy41MjVzMS4yNDUsNS42MjcsMy40MTUsNy41MjVsNDAsMzVMMjAxLjU4NSwyMDcuNDczeiIvPiYjeGE7CQk8L2c+JiN4YTsJPC9nPiYjeGE7PC9nPiYjeGE7PC9zdmc+;labelPosition=center;align=center;points=[[0,0.5,0,0,0],[0.06,0.25,0,0,0],[0.06,0.75,0,0,0],[0.25,0.06,0,0,0],[0.25,0.94,0,0,0],[0.5,0,0,0,0],[0.5,1,0,0,0],[0.75,0.06,0,0,0],[0.75,0.94,0,0,0],[0.94,0.25,0,0,0],[0.94,0.75,0,0,0],[1,0.5,0,0,0]];" vertex="1" parent="1">
          <mxGeometry x="440" y="1370" width="140" height="140" as="geometry" />
        </mxCell>
        <mxCell id="eSy3FWioJyTbYzm8Jmqo-57" style="edgeStyle=none;rounded=0;orthogonalLoop=1;jettySize=auto;html=1;exitX=0.5;exitY=1;exitDx=0;exitDy=0;exitPerimeter=0;entryX=0.5;entryY=0.1;entryDx=0;entryDy=0;entryPerimeter=0;jumpStyle=arc;" edge="1" parent="1" source="eSy3FWioJyTbYzm8Jmqo-36" target="eSy3FWioJyTbYzm8Jmqo-45">
          <mxGeometry relative="1" as="geometry" />
        </mxCell>
        <mxCell id="eSy3FWioJyTbYzm8Jmqo-73" style="edgeStyle=orthogonalEdgeStyle;rounded=0;orthogonalLoop=1;jettySize=auto;html=1;exitX=0.25;exitY=0.06;exitDx=0;exitDy=0;exitPerimeter=0;entryX=1;entryY=0.5;entryDx=0;entryDy=0;jumpStyle=arc;" edge="1" parent="1" source="eSy3FWioJyTbYzm8Jmqo-36" target="eSy3FWioJyTbYzm8Jmqo-66">
          <mxGeometry relative="1" as="geometry">
            <Array as="points">
              <mxPoint x="695" y="1310" />
            </Array>
          </mxGeometry>
        </mxCell>
        <mxCell id="eSy3FWioJyTbYzm8Jmqo-91" style="edgeStyle=orthogonalEdgeStyle;rounded=0;orthogonalLoop=1;jettySize=auto;html=1;exitX=0.94;exitY=0.75;exitDx=0;exitDy=0;exitPerimeter=0;entryX=1;entryY=0.5;entryDx=0;entryDy=0;" edge="1" parent="1" source="eSy3FWioJyTbYzm8Jmqo-36" target="eSy3FWioJyTbYzm8Jmqo-76">
          <mxGeometry relative="1" as="geometry">
            <Array as="points">
              <mxPoint x="792" y="2250" />
            </Array>
          </mxGeometry>
        </mxCell>
        <mxCell id="eSy3FWioJyTbYzm8Jmqo-105" value="Control Data" style="edgeLabel;html=1;align=center;verticalAlign=middle;resizable=0;points=[];" vertex="1" connectable="0" parent="eSy3FWioJyTbYzm8Jmqo-91">
          <mxGeometry x="-0.4082" y="1" relative="1" as="geometry">
            <mxPoint as="offset" />
          </mxGeometry>
        </mxCell>
        <mxCell id="eSy3FWioJyTbYzm8Jmqo-36" value="Soft Delete&#xa;Handler&#xa;" style="shape=image;verticalLabelPosition=bottom;labelBackgroundColor=default;verticalAlign=top;aspect=fixed;imageAspect=0;image=data:image/svg+xml,PHN2ZyBmaWxsPSIjMDAwMDAwIiBoZWlnaHQ9IjgwMHB4IiB3aWR0aD0iODAwcHgiIHZlcnNpb249IjEuMSIgaWQ9IkxheWVyXzEiIHhtbG5zPSJodHRwOi8vd3d3LnczLm9yZy8yMDAwL3N2ZyIgeG1sbnM6eGxpbms9Imh0dHA6Ly93d3cudzMub3JnLzE5OTkveGxpbmsiIHZpZXdCb3g9IjAgMCA0ODAgNDgwIiB4bWw6c3BhY2U9InByZXNlcnZlIj4mI3hhOzxnPiYjeGE7CTxnPiYjeGE7CQk8Zz4mI3hhOwkJCTxwYXRoIGQ9Ik0yNDAsMEMxMDcuNjY0LDAsMCwxMDcuNjY0LDAsMjQwczEwNy42NjQsMjQwLDI0MCwyNDBzMjQwLTEwNy42NjQsMjQwLTI0MFMzNzIuMzM2LDAsMjQwLDB6IE0yNDAsNDYwICAgICBjLTEyMS4zMDksMC0yMjAtOTguNjkxLTIyMC0yMjBTMTE4LjY5MSwyMCwyNDAsMjBzMjIwLDk4LjY5MSwyMjAsMjIwUzM2MS4zMDksNDYwLDI0MCw0NjB6Ii8+JiN4YTsJCQk8cGF0aCBkPSJNNDEwLDE5NC45OTloLTI3LjA1OGMtMi42NDMtOC40NC02LTE2LjU2LTEwLjAzLTI0LjI3MWwxOS4xNTgtMTkuMTU4YzMuNzc2LTMuNzc1LDUuODU0LTguNzksNS44NTQtMTQuMTIxICAgICBjMC01LjMzMi0yLjA4LTEwLjM0Ny01Ljg1NC0xNC4xMjFsLTM1LjM5OS0zNS4zOTljLTMuNzc1LTMuNzc1LTguNzktNS44NTQtMTQuMTIyLTUuODU0Yy01LjMzMSwwLTEwLjM0NiwyLjA3OS0xNC4xMjEsNS44NTQgICAgIGwtMTkuMTU4LDE5LjE1OGMtNy43MTEtNC4wMy0xNS44MzItNy4zODYtMjQuMjcxLTEwLjAzVjcwYzAtMTEuMDI4LTguOTcyLTIwLTIwLTIwaC01MGMtMTEuMDI4LDAtMjAsOC45NzItMjAsMjB2MjcuMDU4ICAgICBjLTguNDQsMi42NDMtMTYuNTYsNi0yNC4yNzEsMTAuMDNMMTUxLjU3LDg3LjkzYy0zLjc3NS0zLjc3Ni04Ljc5LTUuODU0LTE0LjEyMS01Ljg1NGMtNS4zMzIsMC0xMC4zNDcsMi4wOC0xNC4xMjEsNS44NTQgICAgIGwtMzUuMzk5LDM1LjM5OWMtMy43NzUsMy43NzUtNS44NTQsOC43OS01Ljg1NCwxNC4xMjJjMCw1LjMzMSwyLjA3OSwxMC4zNDYsNS44NTQsMTQuMTIxbDE5LjE1OCwxOS4xNTggICAgIGMtNC4wMyw3LjcxMS03LjM4NiwxNS44MzItMTAuMDMsMjQuMjcxSDcwYy0xMS4wMjgsMC0yMCw4Ljk3Mi0yMCwyMHY1MGMwLDExLjAyOCw4Ljk3MiwyMCwyMCwyMGgyNy4wNTcgICAgIGMyLjY0Myw4LjQ0LDYsMTYuNTYsMTAuMDMsMjQuMjcxTDg3LjkyOSwzMjguNDNjLTMuNzc2LDMuNzc1LTUuODU0LDguNzktNS44NTQsMTQuMTIxYzAsNS4zMzIsMi4wOCwxMC4zNDcsNS44NTQsMTQuMTIxICAgICBsMzUuMzk5LDM1LjM5OWMzLjc3NSwzLjc3NSw4Ljc5LDUuODU0LDE0LjEyMiw1Ljg1NGM1LjMzMSwwLDEwLjM0Ni0yLjA3OSwxNC4xMjEtNS44NTRsMTkuMTU4LTE5LjE1OCAgICAgYzcuNzExLDQuMDMsMTUuODMyLDcuMzg2LDI0LjI3MSwxMC4wM1Y0MTBjMCwxMS4wMjgsOC45NzIsMjAsMjAsMjBoNTBjMTEuMDI4LDAsMjAtOC45NzIsMjAuMDAxLTIwdi0yNy4wNTggICAgIGM4LjQ0LTIuNjQzLDE2LjU2LTYsMjQuMjcxLTEwLjAzbDE5LjE1OCwxOS4xNThjMy43NzUsMy43NzYsOC43OSw1Ljg1NCwxNC4xMjEsNS44NTRjNS4zMzIsMCwxMC4zNDctMi4wOCwxNC4xMjEtNS44NTQgICAgIGwzNS4zOTktMzUuMzk5YzMuNzc1LTMuNzc1LDUuODU0LTguNzksNS44NTQtMTQuMTIyYzAtNS4zMzEtMi4wNzktMTAuMzQ2LTUuODU0LTE0LjEyMWwtMTkuMTU4LTE5LjE1OCAgICAgYzQuMDMtNy43MTEsNy4zODYtMTUuODMyLDEwLjAzLTI0LjI3MUg0MTBjMTEuMDI4LDAsMjAtOC45NzIsMjAtMjB2LTUwQzQzMCwyMDMuOTcxLDQyMS4wMjgsMTk0Ljk5OSw0MTAsMTk0Ljk5OXogTTQxMCwyNjQuOTk4ICAgICBoLTM0LjU5OGMtNC41NjIsMC04LjU0NCwzLjA4Ni05LjY4NCw3LjUwM2MtMy4wNjksMTEuOTAxLTcuNzE2LDIzLjEzMy0xMy44MTMsMzMuMzg3Yy0yLjMzNywzLjkzMS0xLjcxLDguOTQ4LDEuNTI0LDEyLjE4MiAgICAgbDI0LjUsMjQuNDU3bC0zNS4zNTcsMzUuNGwtMjQuNS0yNC41Yy0zLjIzNi0zLjIzNS04LjI1My0zLjg2LTEyLjE4Mi0xLjUyNGMtMTAuMjU0LDYuMDk3LTIxLjQ4NywxMC43NDUtMzMuMzg3LDEzLjgxMyAgICAgYy00LjQxNywxLjE0LTcuNTAzLDUuMTIyLTcuNTAzLDkuNjg0VjQxMGgtNTB2LTM0LjU5OWMwLTQuNTYyLTMuMDg2LTguNTQ0LTcuNTAzLTkuNjg0ICAgICBjLTExLjkwMS0zLjA2OS0yMy4xMzMtNy43MTYtMzMuMzg3LTEzLjgxM2MtMS41ODctMC45NDQtMy4zNTMtMS40MDQtNS4xMDctMS40MDRjLTIuNTg2LDAtNS4xNDcsMS4wMDItNy4wNzMsMi45MzFsLTI0LjQ1NywyNC41ICAgICBsLTM1LjQtMzUuMzU3bDI0LjUtMjQuNWMzLjIzNC0zLjIzNSwzLjg2MS04LjI1MSwxLjUyNC0xMi4xODJjLTYuMDk3LTEwLjI1NC0xMC43NDUtMjEuNDg3LTEzLjgxMy0zMy4zODcgICAgIGMtMS4xNC00LjQxNy01LjEyMi03LjUwMy05LjY4NC03LjUwM0g3MHYtNTBoMzQuNTk2YzQuNTYyLDAsOC41NDQtMy4wODYsOS42ODQtNy41MDNjMy4wNjktMTEuOTAxLDcuNzE2LTIzLjEzMywxMy44MTMtMzMuMzg3ICAgICBjMi4zMzctMy45MzEsMS43MS04Ljk0OC0xLjUyNC0xMi4xODJsLTI0LjUtMjQuNDU3bDM1LjM1Ny0zNS40bDI0LjUsMjQuNWMzLjIzNiwzLjIzNSw4LjI1MywzLjg2MSwxMi4xODIsMS41MjQgICAgIGMxMC4yNTQtNi4wOTcsMjEuNDg3LTEwLjc0NSwzMy4zODctMTMuODEzYzQuNDE3LTEuMTQsNy41MDMtNS4xMjIsNy41MDMtOS42ODRWNzBoNTB2MzQuNTk2YzAsNC41NjIsMy4wODYsOC41NDQsNy41MDMsOS42ODQgICAgIGMxMS45MDEsMy4wNjksMjMuMTMzLDcuNzE2LDMzLjM4NywxMy44MTNjMy45MjksMi4zMzcsOC45NDcsMS43MDksMTIuMTgyLTEuNTI0bDI0LjQ1Ny0yNC41bDM1LjQsMzUuMzU3bC0yNC41LDI0LjUgICAgIGMtMy4yMzQsMy4yMzUtMy44NjEsOC4yNTEtMS41MjQsMTIuMTgyYzYuMDk3LDEwLjI1NCwxMC43NDUsMjEuNDg3LDEzLjgxMywzMy4zODdjMS4xNCw0LjQxNyw1LjEyMiw3LjUwMyw5LjY4NCw3LjUwM0g0MTAgICAgIFYyNjQuOTk4eiIvPiYjeGE7CQkJPHBhdGggZD0iTTMzMS41ODUsMjkyLjQ3NWwtNDAtMzVsLTEzLjE3LDE1LjA1MUwyOTguMzg2LDI5MEgyNDBjLTI3LjU3LDAtNTAtMjIuNDMtNTAtNTBoLTIwYzAsMzguNTk4LDMxLjQwMiw3MCw3MCw3MGg1OC4zODYgICAgIGwtMTkuOTcxLDE3LjQ3NWwxMy4xNywxNS4wNTFsNDAtMzVjMi4xNy0xLjg5OCwzLjQxNS00LjY0MiwzLjQxNS03LjUyNVMzMzMuNzU1LDI5NC4zNzMsMzMxLjU4NSwyOTIuNDc1eiIvPiYjeGE7CQkJPHBhdGggZD0iTTIwMS41ODUsMjA3LjQ3M0wxODEuNjE0LDE5MEgyNDBjMjcuNTcsMCw1MCwyMi40Myw1MCw1MGgyMGMwLTM4LjU5OC0zMS40MDItNzAtNzAtNzBoLTU4LjM4NmwxOS45NzEtMTcuNDc1ICAgICBsLTEzLjE3LTE1LjA1MWwtNDAsMzVjLTIuMTcsMS44OTgtMy40MTUsNC42NDItMy40MTUsNy41MjVzMS4yNDUsNS42MjcsMy40MTUsNy41MjVsNDAsMzVMMjAxLjU4NSwyMDcuNDczeiIvPiYjeGE7CQk8L2c+JiN4YTsJPC9nPiYjeGE7PC9nPiYjeGE7PC9zdmc+;labelPosition=center;align=center;points=[[0,0.5,0,0,0],[0.06,0.25,0,0,0],[0.06,0.75,0,0,0],[0.25,0.06,0,0,0],[0.25,0.94,0,0,0],[0.5,0,0,0,0],[0.5,1,0,0,0],[0.75,0.06,0,0,0],[0.75,0.94,0,0,0],[0.94,0.25,0,0,0],[0.94,0.75,0,0,0],[1,0.5,0,0,0]];" vertex="1" parent="1">
          <mxGeometry x="660" y="1370" width="140" height="140" as="geometry" />
        </mxCell>
        <mxCell id="eSy3FWioJyTbYzm8Jmqo-59" style="edgeStyle=none;rounded=0;orthogonalLoop=1;jettySize=auto;html=1;exitX=0.5;exitY=1;exitDx=0;exitDy=0;exitPerimeter=0;entryX=0.5;entryY=0.1;entryDx=0;entryDy=0;entryPerimeter=0;jumpStyle=arc;" edge="1" parent="1" source="eSy3FWioJyTbYzm8Jmqo-37" target="eSy3FWioJyTbYzm8Jmqo-45">
          <mxGeometry relative="1" as="geometry" />
        </mxCell>
        <mxCell id="eSy3FWioJyTbYzm8Jmqo-75" style="edgeStyle=orthogonalEdgeStyle;rounded=0;orthogonalLoop=1;jettySize=auto;html=1;exitX=0.25;exitY=0.06;exitDx=0;exitDy=0;exitPerimeter=0;entryX=1;entryY=0.5;entryDx=0;entryDy=0;jumpStyle=arc;" edge="1" parent="1" source="eSy3FWioJyTbYzm8Jmqo-37" target="eSy3FWioJyTbYzm8Jmqo-66">
          <mxGeometry relative="1" as="geometry">
            <Array as="points">
              <mxPoint x="915" y="1310" />
            </Array>
          </mxGeometry>
        </mxCell>
        <mxCell id="eSy3FWioJyTbYzm8Jmqo-92" style="edgeStyle=orthogonalEdgeStyle;rounded=0;orthogonalLoop=1;jettySize=auto;html=1;exitX=0.94;exitY=0.75;exitDx=0;exitDy=0;exitPerimeter=0;entryX=1;entryY=0.5;entryDx=0;entryDy=0;" edge="1" parent="1" source="eSy3FWioJyTbYzm8Jmqo-37" target="eSy3FWioJyTbYzm8Jmqo-76">
          <mxGeometry relative="1" as="geometry">
            <Array as="points">
              <mxPoint x="1010" y="1475" />
              <mxPoint x="1010" y="2250" />
            </Array>
          </mxGeometry>
        </mxCell>
        <mxCell id="eSy3FWioJyTbYzm8Jmqo-106" value="Control Data" style="edgeLabel;html=1;align=center;verticalAlign=middle;resizable=0;points=[];" vertex="1" connectable="0" parent="eSy3FWioJyTbYzm8Jmqo-92">
          <mxGeometry x="-0.5051" y="-1" relative="1" as="geometry">
            <mxPoint as="offset" />
          </mxGeometry>
        </mxCell>
        <mxCell id="eSy3FWioJyTbYzm8Jmqo-37" value="Update Meta&#xa;Handler&#xa;" style="shape=image;verticalLabelPosition=bottom;labelBackgroundColor=default;verticalAlign=top;aspect=fixed;imageAspect=0;image=data:image/svg+xml,PHN2ZyBmaWxsPSIjMDAwMDAwIiBoZWlnaHQ9IjgwMHB4IiB3aWR0aD0iODAwcHgiIHZlcnNpb249IjEuMSIgaWQ9IkxheWVyXzEiIHhtbG5zPSJodHRwOi8vd3d3LnczLm9yZy8yMDAwL3N2ZyIgeG1sbnM6eGxpbms9Imh0dHA6Ly93d3cudzMub3JnLzE5OTkveGxpbmsiIHZpZXdCb3g9IjAgMCA0ODAgNDgwIiB4bWw6c3BhY2U9InByZXNlcnZlIj4mI3hhOzxnPiYjeGE7CTxnPiYjeGE7CQk8Zz4mI3hhOwkJCTxwYXRoIGQ9Ik0yNDAsMEMxMDcuNjY0LDAsMCwxMDcuNjY0LDAsMjQwczEwNy42NjQsMjQwLDI0MCwyNDBzMjQwLTEwNy42NjQsMjQwLTI0MFMzNzIuMzM2LDAsMjQwLDB6IE0yNDAsNDYwICAgICBjLTEyMS4zMDksMC0yMjAtOTguNjkxLTIyMC0yMjBTMTE4LjY5MSwyMCwyNDAsMjBzMjIwLDk4LjY5MSwyMjAsMjIwUzM2MS4zMDksNDYwLDI0MCw0NjB6Ii8+JiN4YTsJCQk8cGF0aCBkPSJNNDEwLDE5NC45OTloLTI3LjA1OGMtMi42NDMtOC40NC02LTE2LjU2LTEwLjAzLTI0LjI3MWwxOS4xNTgtMTkuMTU4YzMuNzc2LTMuNzc1LDUuODU0LTguNzksNS44NTQtMTQuMTIxICAgICBjMC01LjMzMi0yLjA4LTEwLjM0Ny01Ljg1NC0xNC4xMjFsLTM1LjM5OS0zNS4zOTljLTMuNzc1LTMuNzc1LTguNzktNS44NTQtMTQuMTIyLTUuODU0Yy01LjMzMSwwLTEwLjM0NiwyLjA3OS0xNC4xMjEsNS44NTQgICAgIGwtMTkuMTU4LDE5LjE1OGMtNy43MTEtNC4wMy0xNS44MzItNy4zODYtMjQuMjcxLTEwLjAzVjcwYzAtMTEuMDI4LTguOTcyLTIwLTIwLTIwaC01MGMtMTEuMDI4LDAtMjAsOC45NzItMjAsMjB2MjcuMDU4ICAgICBjLTguNDQsMi42NDMtMTYuNTYsNi0yNC4yNzEsMTAuMDNMMTUxLjU3LDg3LjkzYy0zLjc3NS0zLjc3Ni04Ljc5LTUuODU0LTE0LjEyMS01Ljg1NGMtNS4zMzIsMC0xMC4zNDcsMi4wOC0xNC4xMjEsNS44NTQgICAgIGwtMzUuMzk5LDM1LjM5OWMtMy43NzUsMy43NzUtNS44NTQsOC43OS01Ljg1NCwxNC4xMjJjMCw1LjMzMSwyLjA3OSwxMC4zNDYsNS44NTQsMTQuMTIxbDE5LjE1OCwxOS4xNTggICAgIGMtNC4wMyw3LjcxMS03LjM4NiwxNS44MzItMTAuMDMsMjQuMjcxSDcwYy0xMS4wMjgsMC0yMCw4Ljk3Mi0yMCwyMHY1MGMwLDExLjAyOCw4Ljk3MiwyMCwyMCwyMGgyNy4wNTcgICAgIGMyLjY0Myw4LjQ0LDYsMTYuNTYsMTAuMDMsMjQuMjcxTDg3LjkyOSwzMjguNDNjLTMuNzc2LDMuNzc1LTUuODU0LDguNzktNS44NTQsMTQuMTIxYzAsNS4zMzIsMi4wOCwxMC4zNDcsNS44NTQsMTQuMTIxICAgICBsMzUuMzk5LDM1LjM5OWMzLjc3NSwzLjc3NSw4Ljc5LDUuODU0LDE0LjEyMiw1Ljg1NGM1LjMzMSwwLDEwLjM0Ni0yLjA3OSwxNC4xMjEtNS44NTRsMTkuMTU4LTE5LjE1OCAgICAgYzcuNzExLDQuMDMsMTUuODMyLDcuMzg2LDI0LjI3MSwxMC4wM1Y0MTBjMCwxMS4wMjgsOC45NzIsMjAsMjAsMjBoNTBjMTEuMDI4LDAsMjAtOC45NzIsMjAuMDAxLTIwdi0yNy4wNTggICAgIGM4LjQ0LTIuNjQzLDE2LjU2LTYsMjQuMjcxLTEwLjAzbDE5LjE1OCwxOS4xNThjMy43NzUsMy43NzYsOC43OSw1Ljg1NCwxNC4xMjEsNS44NTRjNS4zMzIsMCwxMC4zNDctMi4wOCwxNC4xMjEtNS44NTQgICAgIGwzNS4zOTktMzUuMzk5YzMuNzc1LTMuNzc1LDUuODU0LTguNzksNS44NTQtMTQuMTIyYzAtNS4zMzEtMi4wNzktMTAuMzQ2LTUuODU0LTE0LjEyMWwtMTkuMTU4LTE5LjE1OCAgICAgYzQuMDMtNy43MTEsNy4zODYtMTUuODMyLDEwLjAzLTI0LjI3MUg0MTBjMTEuMDI4LDAsMjAtOC45NzIsMjAtMjB2LTUwQzQzMCwyMDMuOTcxLDQyMS4wMjgsMTk0Ljk5OSw0MTAsMTk0Ljk5OXogTTQxMCwyNjQuOTk4ICAgICBoLTM0LjU5OGMtNC41NjIsMC04LjU0NCwzLjA4Ni05LjY4NCw3LjUwM2MtMy4wNjksMTEuOTAxLTcuNzE2LDIzLjEzMy0xMy44MTMsMzMuMzg3Yy0yLjMzNywzLjkzMS0xLjcxLDguOTQ4LDEuNTI0LDEyLjE4MiAgICAgbDI0LjUsMjQuNDU3bC0zNS4zNTcsMzUuNGwtMjQuNS0yNC41Yy0zLjIzNi0zLjIzNS04LjI1My0zLjg2LTEyLjE4Mi0xLjUyNGMtMTAuMjU0LDYuMDk3LTIxLjQ4NywxMC43NDUtMzMuMzg3LDEzLjgxMyAgICAgYy00LjQxNywxLjE0LTcuNTAzLDUuMTIyLTcuNTAzLDkuNjg0VjQxMGgtNTB2LTM0LjU5OWMwLTQuNTYyLTMuMDg2LTguNTQ0LTcuNTAzLTkuNjg0ICAgICBjLTExLjkwMS0zLjA2OS0yMy4xMzMtNy43MTYtMzMuMzg3LTEzLjgxM2MtMS41ODctMC45NDQtMy4zNTMtMS40MDQtNS4xMDctMS40MDRjLTIuNTg2LDAtNS4xNDcsMS4wMDItNy4wNzMsMi45MzFsLTI0LjQ1NywyNC41ICAgICBsLTM1LjQtMzUuMzU3bDI0LjUtMjQuNWMzLjIzNC0zLjIzNSwzLjg2MS04LjI1MSwxLjUyNC0xMi4xODJjLTYuMDk3LTEwLjI1NC0xMC43NDUtMjEuNDg3LTEzLjgxMy0zMy4zODcgICAgIGMtMS4xNC00LjQxNy01LjEyMi03LjUwMy05LjY4NC03LjUwM0g3MHYtNTBoMzQuNTk2YzQuNTYyLDAsOC41NDQtMy4wODYsOS42ODQtNy41MDNjMy4wNjktMTEuOTAxLDcuNzE2LTIzLjEzMywxMy44MTMtMzMuMzg3ICAgICBjMi4zMzctMy45MzEsMS43MS04Ljk0OC0xLjUyNC0xMi4xODJsLTI0LjUtMjQuNDU3bDM1LjM1Ny0zNS40bDI0LjUsMjQuNWMzLjIzNiwzLjIzNSw4LjI1MywzLjg2MSwxMi4xODIsMS41MjQgICAgIGMxMC4yNTQtNi4wOTcsMjEuNDg3LTEwLjc0NSwzMy4zODctMTMuODEzYzQuNDE3LTEuMTQsNy41MDMtNS4xMjIsNy41MDMtOS42ODRWNzBoNTB2MzQuNTk2YzAsNC41NjIsMy4wODYsOC41NDQsNy41MDMsOS42ODQgICAgIGMxMS45MDEsMy4wNjksMjMuMTMzLDcuNzE2LDMzLjM4NywxMy44MTNjMy45MjksMi4zMzcsOC45NDcsMS43MDksMTIuMTgyLTEuNTI0bDI0LjQ1Ny0yNC41bDM1LjQsMzUuMzU3bC0yNC41LDI0LjUgICAgIGMtMy4yMzQsMy4yMzUtMy44NjEsOC4yNTEtMS41MjQsMTIuMTgyYzYuMDk3LDEwLjI1NCwxMC43NDUsMjEuNDg3LDEzLjgxMywzMy4zODdjMS4xNCw0LjQxNyw1LjEyMiw3LjUwMyw5LjY4NCw3LjUwM0g0MTAgICAgIFYyNjQuOTk4eiIvPiYjeGE7CQkJPHBhdGggZD0iTTMzMS41ODUsMjkyLjQ3NWwtNDAtMzVsLTEzLjE3LDE1LjA1MUwyOTguMzg2LDI5MEgyNDBjLTI3LjU3LDAtNTAtMjIuNDMtNTAtNTBoLTIwYzAsMzguNTk4LDMxLjQwMiw3MCw3MCw3MGg1OC4zODYgICAgIGwtMTkuOTcxLDE3LjQ3NWwxMy4xNywxNS4wNTFsNDAtMzVjMi4xNy0xLjg5OCwzLjQxNS00LjY0MiwzLjQxNS03LjUyNVMzMzMuNzU1LDI5NC4zNzMsMzMxLjU4NSwyOTIuNDc1eiIvPiYjeGE7CQkJPHBhdGggZD0iTTIwMS41ODUsMjA3LjQ3M0wxODEuNjE0LDE5MEgyNDBjMjcuNTcsMCw1MCwyMi40Myw1MCw1MGgyMGMwLTM4LjU5OC0zMS40MDItNzAtNzAtNzBoLTU4LjM4NmwxOS45NzEtMTcuNDc1ICAgICBsLTEzLjE3LTE1LjA1MWwtNDAsMzVjLTIuMTcsMS44OTgtMy40MTUsNC42NDItMy40MTUsNy41MjVzMS4yNDUsNS42MjcsMy40MTUsNy41MjVsNDAsMzVMMjAxLjU4NSwyMDcuNDczeiIvPiYjeGE7CQk8L2c+JiN4YTsJPC9nPiYjeGE7PC9nPiYjeGE7PC9zdmc+;labelPosition=center;align=center;points=[[0,0.5,0,0,0],[0.06,0.25,0,0,0],[0.06,0.75,0,0,0],[0.25,0.06,0,0,0],[0.25,0.94,0,0,0],[0.5,0,0,0,0],[0.5,1,0,0,0],[0.75,0.06,0,0,0],[0.75,0.94,0,0,0],[0.94,0.25,0,0,0],[0.94,0.75,0,0,0],[1,0.5,0,0,0]];" vertex="1" parent="1">
          <mxGeometry x="880" y="1370" width="140" height="140" as="geometry" />
        </mxCell>
        <mxCell id="eSy3FWioJyTbYzm8Jmqo-98" style="edgeStyle=orthogonalEdgeStyle;rounded=0;orthogonalLoop=1;jettySize=auto;html=1;exitX=0.5;exitY=0.9;exitDx=0;exitDy=0;exitPerimeter=0;" edge="1" parent="1" source="eSy3FWioJyTbYzm8Jmqo-45" target="eSy3FWioJyTbYzm8Jmqo-97">
          <mxGeometry relative="1" as="geometry" />
        </mxCell>
        <mxCell id="eSy3FWioJyTbYzm8Jmqo-45" value="Plugin Server A" style="shape=image;verticalLabelPosition=middle;labelBackgroundColor=default;verticalAlign=middle;aspect=fixed;imageAspect=0;image=data:image/svg+xml,PHN2ZyBjbGFzcz0ic3ZnLWljb24iIHN0eWxlPSJ3aWR0aDogMWVtOyBoZWlnaHQ6IDFlbTt2ZXJ0aWNhbC1hbGlnbjogbWlkZGxlO2ZpbGw6IGN1cnJlbnRDb2xvcjtvdmVyZmxvdzogaGlkZGVuOyIgdmlld0JveD0iMCAwIDEwMjQgMTAyNCIgdmVyc2lvbj0iMS4xIiB4bWxucz0iaHR0cDovL3d3dy53My5vcmcvMjAwMC9zdmciPjxwYXRoIGQ9Ik0zNTcuOTkwNCA4NTguMTEyaC0yMDQuOGMtNS43MzQ0IDAtMTAuMjQtMy42ODY0LTEwLjI0LTYuOTYzMlYxNzIuODUxMmMwLTMuMjc2OCA0LjUwNTYtNi45NjMyIDEwLjI0LTYuOTYzMmg1MzIuNDhjNS43MzQ0IDAgMTAuMjQgMy42ODY0IDEwLjI0IDYuOTYzMnYxMjkuNDMzNmMwIDE2Ljc5MzYgMTMuOTI2NCAzMC43MiAzMC43MiAzMC43MnMzMC43Mi0xMy45MjY0IDMwLjcyLTMwLjcyVjE3Mi44NTEyYzAtMzcuNjgzMi0zMi4zNTg0LTY4LjQwMzItNzEuNjgtNjguNDAzMmgtNTMyLjQ4Yy0zOS4zMjE2IDAtNzEuNjggMzAuNzItNzEuNjggNjguNDAzMnY2NzguMjk3NmMwIDM3LjY4MzIgMzIuMzU4NCA2OC40MDMyIDcxLjY4IDY4LjQwMzJoMjA0LjhjMTYuNzkzNiAwIDMwLjcyLTEzLjkyNjQgMzAuNzItMzAuNzJzLTEzLjkyNjQtMzAuNzItMzAuNzItMzAuNzJ6IiBmaWxsPSIjMjMxODE1Ii8+PHBhdGggZD0iTTI3Ni4wNzA0IDI5Mi44NjRjLTE2Ljc5MzYgMC0zMC43MiAxMy45MjY0LTMwLjcyIDMwLjcyczEzLjkyNjQgMzAuNzIgMzAuNzIgMzAuNzJoMjQ1Ljc2YzE2Ljc5MzYgMCAzMC43Mi0xMy45MjY0IDMwLjcyLTMwLjcycy0xMy45MjY0LTMwLjcyLTMwLjcyLTMwLjcyaC0yNDUuNzZ6TTY2Ni4wMDk2IDM2Ni41OTJjLTE1Mi4zNzEyIDAtMjc2LjQ4IDEyNC4xMDg4LTI3Ni40OCAyNzYuNDhzMTI0LjEwODggMjc2LjQ4IDI3Ni40OCAyNzYuNDggMjc2LjQ4LTEyNC4xMDg4IDI3Ni40OC0yNzYuNDgtMTIzLjY5OTItMjc2LjQ4LTI3Ni40OC0yNzYuNDh6IG0xNjMuNDMwNCAzMTIuMTE1MmMtNi45NjMyIDIuNDU3Ni0xNC4zMzYgNC45MTUyLTIxLjcwODggNi45NjMyIDAuODE5Mi0xMy45MjY0IDEuNjM4NC0yNy44NTI4IDEuNjM4NC00Mi41OTg0cy0wLjQwOTYtMjguNjcyLTEuNjM4NC00Mi41OTg0YzcuNzgyNCAyLjA0OCAxNC43NDU2IDQuNTA1NiAyMS43MDg4IDYuOTYzMiAzOS4zMjE2IDE0LjMzNiA1Mi4wMTkyIDI5LjkwMDggNTIuMDE5MiAzNS4yMjU2LTAuNDA5NiA1LjczNDQtMTMuMTA3MiAyMS4yOTkyLTUyLjAxOTIgMzYuMDQ0OHogbS0xNjMuNDMwNCAxNzkuNDA0OGMtMjEuNzA4OCAwLTQ5LjU2MTYtMzUuNjM1Mi02Ni43NjQ4LTk2LjY2NTYgMjEuNzA4OCAyLjA0OCA0NC4yMzY4IDMuMjc2OCA2Ni43NjQ4IDMuMjc2OHM0NC42NDY0LTEuMjI4OCA2Ni43NjQ4LTMuMjc2OGMtMTYuNzkzNiA2MS4wMzA0LTQ1LjA1NiA5Ni42NjU2LTY2Ljc2NDggOTYuNjY1NnogbTAtMTU0LjgyODhjLTI3LjQ0MzIgMC01My42NTc2LTEuNjM4NC03OC42NDMyLTQuOTE1Mi0yLjA0OC0xNy4yMDMyLTIuODY3Mi0zNS42MzUyLTIuODY3Mi01NS4yOTZzMS4yMjg4LTM3LjY4MzIgMi44NjcyLTU1LjI5NmMyNC41NzYtMy4yNzY4IDUxLjItNC45MTUyIDc4LjY0MzItNC45MTUyIDI3LjQ0MzIgMCA1My42NTc2IDEuNjM4NCA3OC42NDMyIDQuOTE1MiAyLjA0OCAxNy4yMDMyIDIuODY3MiAzNS42MzUyIDIuODY3MiA1NS4yOTZzLTEuMjI4OCAzNy42ODMyLTIuODY3MiA1NS4yOTZjLTI0LjU3NiAzLjI3NjgtNTEuMiA0LjkxNTItNzguNjQzMiA0LjkxNTJ6TTQ1MS4zNzkyIDY0My4wNzJjMC01LjMyNDggMTIuNjk3Ni0yMC44ODk2IDUyLjAxOTItMzUuMjI1NiA2Ljk2MzItMi40NTc2IDE0LjMzNi00LjkxNTIgMjEuNzA4OC02Ljk2MzItMC44MTkyIDEzLjkyNjQtMS42Mzg0IDI3Ljg1MjgtMS42Mzg0IDQyLjU5ODRzMC40MDk2IDI4LjY3MiAxLjYzODQgNDIuNTk4NGMtNy43ODI0LTIuMDQ4LTE0Ljc0NTYtNC41MDU2LTIxLjcwODgtNi45NjMyLTM5LjMyMTYtMTUuMTU1Mi01Mi4wMTkyLTMwLjcyLTUyLjAxOTItMzYuMDQ0OHogbTIxNC42MzA0LTIxNS4wNGMyMS43MDg4IDAgNDkuNTYxNiAzNS42MzUyIDY2Ljc2NDggOTYuNjY1Ni0yMS43MDg4LTIuMDQ4LTQ0LjIzNjgtMy4yNzY4LTY2Ljc2NDgtMy4yNzY4cy00NC42NDY0IDEuMjI4OC02Ni43NjQ4IDMuMjc2OGMxNy4yMDMyLTYxLjAzMDQgNDUuNDY1Ni05Ni42NjU2IDY2Ljc2NDgtOTYuNjY1NnogbTE5Ni4xOTg0IDEyNi45NzZjLTE4Ljg0MTYtOC4xOTItNDAuNTUwNC0xNC43NDU2LTYzLjQ4OC0xOS42NjA4LTYuMTQ0LTI5LjA4MTYtMTQuMzM2LTU1LjcwNTYtMjQuOTg1Ni03OC4yMzM2IDM4LjkxMiAyMi41MjggNzAuMDQxNiA1Ni45MzQ0IDg4LjQ3MzYgOTcuODk0NHogbS0zMDMuNTEzNi05Ny44OTQ0Yy0xMC42NDk2IDIyLjkzNzYtMTguODQxNiA0OS4xNTItMjQuOTg1NiA3OC4yMzM2LTIyLjkzNzYgNS4zMjQ4LTQ0LjY0NjQgMTEuODc4NC02My40ODggMTkuNjYwOCAxOC40MzItNDAuOTYgNDkuNTYxNi03NS4zNjY0IDg4LjQ3MzYtOTcuODk0NHogbS04OC40NzM2IDI3NC4wMjI0YzE4Ljg0MTYgOC4xOTIgNDAuNTUwNCAxNC43NDU2IDYzLjQ4OCAxOS42NjA4IDYuMTQ0IDI5LjA4MTYgMTQuMzM2IDU1LjcwNTYgMjQuOTg1NiA3OC4yMzM2LTM4LjkxMi0yMi4xMTg0LTcwLjA0MTYtNTYuNTI0OC04OC40NzM2LTk3Ljg5NDR6IG0zMDMuNTEzNiA5Ny44OTQ0YzEwLjY0OTYtMjIuOTM3NiAxOC44NDE2LTQ5LjE1MiAyNC45ODU2LTc4LjIzMzYgMjIuOTM3Ni01LjMyNDggNDQuNjQ2NC0xMS44Nzg0IDYzLjQ4OC0xOS42NjA4LTE4LjQzMiA0MS4zNjk2LTQ5LjU2MTYgNzUuNzc2LTg4LjQ3MzYgOTcuODk0NHoiIGZpbGw9IiMyMzE4MTUiLz48L3N2Zz4=;points=[[0.08,0.25,0,0,0],[0.08,0.5,0,0,0],[0.08,0.75,0,0,0],[0.25,0.1,0,0,0],[0.25,0.9,0,0,0],[0.5,0.1,0,0,0],[0.5,0.9,0,0,0],[0.75,0.1,0,0,0],[0.75,0.25,0,0,0],[0.75,0.9,0,0,0],[0.89,0.5,0,0,0],[0.89,0.75,0,0,0]];labelPosition=right;align=left;" vertex="1" parent="1">
          <mxGeometry x="330" y="1660" width="140" height="140" as="geometry" />
        </mxCell>
        <mxCell id="eSy3FWioJyTbYzm8Jmqo-66" value="" style="shape=image;verticalLabelPosition=bottom;labelBackgroundColor=default;verticalAlign=top;aspect=fixed;imageAspect=0;image=data:image/svg+xml,PHN2ZyB2aWV3Qm94PSIwIDAgMTIwIDEzNSIgZGF0YS1uYW1lPSJMYXllciAxIiBpZD0iTGF5ZXJfMSIgeG1sbnM9Imh0dHA6Ly93d3cudzMub3JnLzIwMDAvc3ZnIj48ZGVmcz48c3R5bGU+LmNscy0xe2ZpbGw6IzMwNjA5Mjt9LmNscy0ye2ZpbGw6I2ZmZjt9PC9zdHlsZT48L2RlZnM+PHRpdGxlPjAxX0lOU1RBTkFfSWNvblNldDwvdGl0bGU+PHBhdGggZD0iTTUyLDQuNjQsOS41NiwyOS4xNUExNiwxNiwwLDAsMCwxLjU3LDQzVjkyYTE2LDE2LDAsMCwwLDgsMTMuODRMNTIsMTMwLjM2YTE2LDE2LDAsMCwwLDE2LDBsNDIuNDUtMjQuNTFhMTYsMTYsMCwwLDAsOC0xMy44NFY0M2ExNiwxNiwwLDAsMC04LTEzLjg0TDY4LDQuNjRBMTYsMTYsMCwwLDAsNTIsNC42NFoiIGNsYXNzPSJjbHMtMSIvPjxwYXRoIGQ9Ik02Mi4zNCw5OS41NGwyLjIyLDIuMDlDNjYuNzEsOTkuNTQsNzQsOTMsNzgsODNhNDUuNDgsNDUuNDgsMCwwLDEtNy41MS0zLjkxQzcwLjU4LDgzLjQyLDY3LjYzLDkyLjE3LDYyLjM0LDk5LjU0WiIgY2xhc3M9ImNscy0yIi8+PHBhdGggZD0iTTkxLjQ3LDc4LjY1czAsMCwwLDAtLjQtLjA4LS43NCwwYy0zLjMuMzctMTAuOS0xLjE3LTEwLjg1LTEuNzMsMS4yNC0xMi40Mi01LjMtMjcuNy01LjMtMjcuN3MtOC45LTYtMTYuNjItNC40NGEyNS45MywyNS45MywwLDAsMC0xNC43Ni0zcy0xOCwyLTE0LjEyLDEzLjc3Yy4yMy42MywyLjcsOS4zOSw0LjY1LDExLjc1UzQzLjMzLDcwLjQ5LDQ4LDg2LjI3YTEuMTQsMS4xNCwwLDAsMCwyLjEzLjEzYzEuODQtNC4yNyw0LjU3LTkuODIsNS40NS0xNi41YTEyMy43MywxMjMuNzMsMCwwLDAsLjQ1LTEyLjUzLjU0LjU0LDAsMCwxLDEuMDYtLjExLDQ0LjM2LDQ0LjM2LDAsMCwxLC45NSwxMy4zNmMyLDEuNzksNS4xOCw0LjMsNyw0LjQ1bC43NC0xYTU4LjY3LDU4LjY3LDAsMCwwLDUuNSwzLjI1aDBhMjUuNTUsMjUuNTUsMCwwLDAsNy4zNSwyLjc4Qzg2LjUsODEuNjMsOTEuMzYsNzksOTEuMzYsNzlBLjI4LjI4LDAsMCwwLDkxLjQ3LDc4LjY1WiIgY2xhc3M9ImNscy0yIi8+PC9zdmc+;" vertex="1" parent="1">
          <mxGeometry x="-487" y="1240" width="124.44" height="140" as="geometry" />
        </mxCell>
        <mxCell id="eSy3FWioJyTbYzm8Jmqo-76" value="App DB 1" style="shape=image;verticalLabelPosition=bottom;labelBackgroundColor=default;verticalAlign=top;aspect=fixed;imageAspect=0;image=data:image/svg+xml,PHN2ZyB2aWV3Qm94PSIwIDAgMTIwIDEzNSIgZGF0YS1uYW1lPSJMYXllciAxIiBpZD0iTGF5ZXJfMSIgeG1sbnM9Imh0dHA6Ly93d3cudzMub3JnLzIwMDAvc3ZnIj48ZGVmcz48c3R5bGU+LmNscy0xe2ZpbGw6I2U3MzEzNTt9LmNscy0ye2ZpbGw6I2ZmZjt9PC9zdHlsZT48L2RlZnM+PHRpdGxlPjAxX0lOU1RBTkFfSWNvblNldDwvdGl0bGU+PHBhdGggZD0iTTUyLDQuNjQsOS41NiwyOS4xNUExNiwxNiwwLDAsMCwxLjU3LDQzVjkyYTE2LDE2LDAsMCwwLDgsMTMuODRMNTIsMTMwLjM2YTE2LDE2LDAsMCwwLDE2LDBsNDIuNDUtMjQuNTFhMTYsMTYsMCwwLDAsOC0xMy44NFY0M2ExNiwxNiwwLDAsMC04LTEzLjg0TDY4LDQuNjRBMTYsMTYsMCwwLDAsNTIsNC42NFoiIGNsYXNzPSJjbHMtMSIvPjxwYXRoIGQ9Ik00My4wOSw2Ny41M3YtLjJoMGExLjgsMS44LDAsMCwwLTEuODEtMS42MUgzNy44NGEyLjQ1LDIuNDUsMCwwLDAtLjM4LDBBMS43OSwxLjc5LDAsMCwwLDM2LDY3LjU1di4yYTEuNzksMS43OSwwLDAsMCwxLjc4LDEuNTZoMy40N2ExLjM3LDEuMzcsMCwwLDAsLjM0LDBBMS43NywxLjc3LDAsMCwwLDQzLjA5LDY3LjUzWiIgY2xhc3M9ImNscy0yIi8+PHBhdGggZD0iTTg4Ljg3LDc5SDMxLjA5VjkxLjMzYS44OS44OSwwLDAsMCwuODkuODlIODhhLjg5Ljg5LDAsMCwwLC44OS0uODlabS00LjE4LDcuMzZhLjY0LjY0LDAsMCwxLS42NC42NEg3NS41NmEuNjMuNjMsMCwwLDEtLjYzLS42NFY4NC42M2gwYS42NC42NCwwLDAsMSwuNTktLjRoOC40OGEuNjQuNjQsMCwwLDEsLjY0LjY0WiIgY2xhc3M9ImNscy0yIi8+PHBhdGggZD0iTTg4LDQyLjc4SDMyYS44OS44OSwwLDAsMC0uODkuODlWNTZoNTcuOFY0My42OEEuOTIuOTIsMCwwLDAsODgsNDIuNzhabS0zLjMxLDcuMzVhLjY0LjY0LDAsMCwxLS42NC42NEg3NS41N2EuNjQuNjQsMCwwLDEtLjY0LS42NFY0OC42NmEuNjQuNjQsMCwwLDEsLjY0LS42NGg4LjQ4YS42NC42NCwwLDAsMSwuNjQuNjRaIiBjbGFzcz0iY2xzLTIiLz48cGF0aCBkPSJNNTYuNzYsNjguMThoMi40OWwtMS4yMy0yWk0zMS4wOSw2MC40OXYxNGg1Ny44di0xNFpNNDIuNTUsNzAuNzRhMy43LDMuNywwLDAsMS0uNjYuMDdIMzguMzZhMy4zLDMuMywwLDAsMS0zLjI2LTIuNzJoMGEzLDMsMCwwLDEsMC0uNTIsMy4zNCwzLjM0LDAsMCwxLDIuNy0zLjI3aDBhNS44LDUuOCwwLDAsMSwuNjUtLjA3SDQyYTMuMjksMy4yOSwwLDAsMSwzLjE5LDIuODhjMCwuMTQsMCwuMjcsMCwuNEEzLjMsMy4zLDAsMCwxLDQyLjU1LDcwLjc0Wm0xOC41LjA2LS4wNiwwLS4xNS0uMTEsMCwwYy0uMTctLjI3LS4zNC0uNTYtLjUyLS44NGwtLjA3LDBINTcuNGwtLjI2LS4wN0w1Nyw2OS40OGgwYy0uMTgtLjI3LS4zNC0uNTQtLjUxLS43OWgwbC0xLjE5LDEuOWgwbC0uMTYuMTYtLjI0LDBINTMuNTRsMCwwSDUxLjNsMCwwLS4xOS0uMDcsMCwwLTMuMzgtMi45NSwwLDB2MGwtLjItLjI4VjcwLjhINDUuNzh2LS4yNGMwLTIsMC00LDAtNi4wOHYtLjI0aDUuMzFBMi4yOSwyLjI5LDAsMCwxLDUzLjM1LDY2YTIuNDgsMi40OCwwLDAsMSwuMDYuNTQsMi4zLDIuMywwLDAsMS0yLjE5LDIuMjhsLjY4LjU3aDBsMS4xOCwxLC4yLjE4LjE1LS4xOC4wOC0uMWMxLjE5LTEuODYsMi4zOC0zLjcsMy41NS01LjU4YTEuMTUsMS4xNSwwLDAsMSwxLjk1LDBjMS4xNiwxLjg3LDIuMzcsMy43MSwzLjU1LDUuNTdsLjMyLjUxWm04Ljc2LTEuMTZjLS4yMi4zNi0uNDQuNjktLjY3LDFsMCwuMDYtLjA3LDAtLjE1LjA2SDY1LjE2QTMuMjQsMy4yNCwwLDAsMSw2Miw2Ny44OGMwLS4xMSwwLS4yMiwwLS4zM2EzLjMxLDMuMzEsMCwwLDEsMi43Ny0zLjI4aDBhMy4yNiwzLjI2LDAsMCwxLC41MiwwaDQuNjFsLS4yMy4zNy0uMDcuMTFoMGMtLjE4LjI3LS4zNS41My0uNS44aDBhLjUuNSwwLDAsMS0uMjEuMjIuNjIuNjIsMCwwLDEtLjI1LjA1SDY1LjQxYTEuNzMsMS43MywwLDAsMC0xLjc2LDEuNzd2MGgwYTEuNzIsMS43MiwwLDAsMCwxLjQ5LDEuNjVoMGwuMzIsMGg0LjU4Wm0xNSwwLS4wNi4wOWgwYy0uMTguMy0uMzguNi0uNTYuODlsMCwuMDUsMCwwLS4yLjEySDgwLjIzYTMuMjMsMy4yMywwLDAsMS0yLjY1LTEuNTJsLS4xOC4zLS4wNy4xMmgwbC0uNTYuODYsMCwwLDAsMC0uMjMuMTNINzEuMmEuOTMuOTMsMCwwLDEtLjY0LS4yNC44OS44OSwwLDAsMS0uMjQtLjY0VjY0LjU3aDBsMC0uMTIsMC0uMkg3MnY1aDUuNTdhMy4yNCwzLjI0LDAsMCwxLS40Ni0xLjM0aDBhMi40NCwyLjQ0LDAsMCwxLDAtLjI3LDMuMzYsMy4zNiwwLDAsMSwyLjgtMy4zNmwwLC4yNCwwLS4yNGEzLjA5LDMuMDksMCwwLDEsLjUxLDBIODVsLS4xOS4zNi0uMDYuMTJoMGMtLjE4LjI5LS4zNi41Ny0uNTUuODVoMGwtLjE1LjE3LS4yNC4wNUg4MC40M2ExLjY5LDEuNjksMCwwLDAtMS41MiwxaDUuNzJsLS4xOS4zNi0uMDcuMTJoMGwtLjU1Ljg2aDBsLS4xNi4xOC0uMjMsMEg3OC44N2wuMDYuMWExLjY5LDEuNjksMCwwLDAsMS41Ljg2aDQuNjRaTTUxLjc0LDY2LjgyYS43NC43NCwwLDAsMCwwLS4yOS43Ni43NiwwLDAsMC0uNzMtLjc1SDQ3LjQxdjEuNDloLjUxbDMsMEEuNzkuNzksMCwwLDAsNTEuNzQsNjYuODJaIiBjbGFzcz0iY2xzLTIiLz48L3N2Zz4=;" vertex="1" parent="1">
          <mxGeometry x="337.78" y="2180" width="124.44" height="140" as="geometry" />
        </mxCell>
        <mxCell id="eSy3FWioJyTbYzm8Jmqo-99" style="edgeStyle=orthogonalEdgeStyle;rounded=0;orthogonalLoop=1;jettySize=auto;html=1;exitX=0.5;exitY=1;exitDx=0;exitDy=0;" edge="1" parent="1" source="eSy3FWioJyTbYzm8Jmqo-97" target="eSy3FWioJyTbYzm8Jmqo-76">
          <mxGeometry relative="1" as="geometry">
            <Array as="points">
              <mxPoint x="400" y="2120" />
              <mxPoint x="400" y="2120" />
            </Array>
          </mxGeometry>
        </mxCell>
        <mxCell id="eSy3FWioJyTbYzm8Jmqo-100" value="Type Specific Data" style="edgeLabel;html=1;align=center;verticalAlign=middle;resizable=0;points=[];" vertex="1" connectable="0" parent="eSy3FWioJyTbYzm8Jmqo-99">
          <mxGeometry x="0.1908" y="3" relative="1" as="geometry">
            <mxPoint as="offset" />
          </mxGeometry>
        </mxCell>
        <mxCell id="eSy3FWioJyTbYzm8Jmqo-97" value="Plugin A" style="shape=image;verticalLabelPosition=middle;labelBackgroundColor=default;verticalAlign=middle;aspect=fixed;imageAspect=0;image=data:image/svg+xml,PHN2ZyBmaWxsPSIjMDAwMDAwIiB2ZXJzaW9uPSIxLjEiIGlkPSJMYXllcl8xIiB4bWxucz0iaHR0cDovL3d3dy53My5vcmcvMjAwMC9zdmciIHhtbG5zOnhsaW5rPSJodHRwOi8vd3d3LnczLm9yZy8xOTk5L3hsaW5rIiB2aWV3Qm94PSIwIDAgNTEyIDUxMiIgeG1sOnNwYWNlPSJwcmVzZXJ2ZSI+JiN4YTs8Zz4mI3hhOwk8Zz4mI3hhOwkJPGc+JiN4YTsJCQk8cmVjdCB4PSI0NDUuMTc2IiB5PSIyMjIuMDY2IiB3aWR0aD0iMTUuMjA4IiBoZWlnaHQ9IjMyLjYwNiIvPiYjeGE7CQkJPHBhdGggZD0iTTQ2NS4yNzUsMTAzLjUzNlY1NS4yMzdjMC0xMC44OS04Ljg1OS0xOS43NS0xOS43NDktMTkuNzVIMjkyLjcyMWMtMTAuODksMC0xOS43NSw4Ljg2LTE5Ljc1LDE5Ljc1djQ4LjI5OGgtMzguNDk4JiN4QTsmIzk7JiM5OyYjOTsmIzk7VjU1LjIzN2MwLTEwLjg5LTguODYtMTkuNzUtMTkuNzUtMTkuNzVINjEuOTE4Yy0xMC44OTEsMC0xOS43NSw4Ljg2LTE5Ljc1LDE5Ljc1djQ4LjI5OEgwdjM3Mi45NzdoNTEyVjEwMy41MzZINDY1LjI3NXomI3hBOyYjOTsmIzk7JiM5OyYjOTsgTTI4OC4xNzgsNTUuMjM3YzAtMi41MDUsMi4wMzgtNC41NDIsNC41NDItNC41NDJoMTUyLjgwNWMyLjUwNCwwLDQuNTQxLDIuMDM4LDQuNTQxLDQuNTQydjQ4LjI5OEg0MjIuNDdWNjQuMjY4aC0xNS4yMDh2MzkuMjY4JiN4QTsmIzk7JiM5OyYjOTsmIzk7SDI4OC4xNzhWNTUuMjM3eiBNNTcuMzc0LDU1LjIzN2MwLTIuNTA1LDIuMDM4LTQuNTQyLDQuNTQyLTQuNTQyaDE1Mi44MDRjMi41MDQsMCw0LjU0MiwyLjAzOCw0LjU0Miw0LjU0MnY0OC4yOThoLTI5LjEyNiYjeEE7JiM5OyYjOTsmIzk7JiM5O1Y2NC4yNjhoLTE1LjIwOHYzOS4yNjhINTcuMzc0VjU1LjIzN3ogTTQ5Ni43OTIsNDYxLjMwNWgtMzYuNDA0VjI2OS4yOThINDQ1LjE4djE5Mi4wMDdIMTUuMjA4VjExOC43NDNoMjYuOTU5aDE5Mi4zMDVoMzguNDk4JiN4QTsmIzk7JiM5OyYjOTsmIzk7aDE5Mi4zMDVoMzEuNTE3VjQ2MS4zMDV6Ii8+JiN4YTsJCQk8cGF0aCBkPSJNMzg1Ljc3NywyNzUuNzU3Yy0xLjAyOC0wLjA3OC0yLjA2Ny0wLjExOC0zLjA5Mi0wLjExOGMtMTAuMzI5LDAtMjAuMTE3LDMuOTQyLTI3LjU2MiwxMS4wOTYmI3hBOyYjOTsmIzk7JiM5OyYjOTtjLTAuMDU0LDAuMDUxLTAuMTA1LDAuMTAxLTAuMTU5LDAuMTV2LTgxLjAyOGgtODEuMDI3YzAuMDUtMC4wNTQsMC4wOTktMC4xMDUsMC4xNDktMC4xNTgmI3hBOyYjOTsmIzk7JiM5OyYjOTtjNy44MzgtOC4xNTYsMTEuODQtMTkuMzMsMTAuOTc4LTMwLjY1NmMtMS40NDktMTkuMDI2LTE2LjI0LTM0LjM1My0zNS4xNzEtMzYuNDQzYy0xLjQ5NC0wLjE2NC0zLjAwOC0wLjI0OC00LjUtMC4yNDgmI3hBOyYjOTsmIzk7JiM5OyYjOTtjLTIxLjkzOSwwLTM5Ljc4NywxNy44NDgtMzkuNzg3LDM5Ljc4OGMwLDEwLjQxNCwzLjk5NCwyMC4yNTQsMTEuMjUsMjcuNzE5aC04MS4wMzF2OTkuMzM0aDcuNjA0JiN4QTsmIzk7JiM5OyYjOTsmIzk7YzYuMjQ4LDAsMTIuMjM3LTIuNDkyLDE2LjQzMS02LjgzNWM1LjEyMi01LjMwMywxMi4yMTMtOC4wMDYsMTkuNjIxLTcuNDM1YzExLjU0OCwwLjg3OCwyMS4yMTMsMTAuMTk2LDIyLjQ4MSwyMS42NzMmI3hBOyYjOTsmIzk7JiM5OyYjOTtjMC43ODcsNy4xMjEtMS4zODEsMTMuOTQ4LTYuMTA1LDE5LjIyM2MtNC42NjEsNS4yMDQtMTEuMzM3LDguMTg5LTE4LjMxNyw4LjE4OWMtNi42MzEsMC0xMi44NDYtMi42MDItMTcuNTAyLTcuMzI4JiN4QTsmIzk7JiM5OyYjOTsmIzk7Yy0zLjE4Ni0zLjIzMi03LjE3Ny01LjQ2My0xMS41NDItNi40NDljLTAuNzU3LTAuMTcyLTEuNTM0LTAuMjU5LTIuMzA3LTAuMjU5Yy01LjcxNSwwLTEwLjM2NCw0LjYzOS0xMC4zNjQsMTAuMzQzdjg4LjY4MSYjeEE7JiM5OyYjOTsmIzk7JiM5O2g4OC45OTFjNS43MDMsMCwxMC4zNDMtNC42MzksMTAuMzQzLTEwLjM0MmMwLTYuMjQ4LTIuNDkyLTEyLjIzOC02LjgzNi0xNi40MzJjLTUuMjg1LTUuMTAzLTcuOTk0LTEyLjI1Ni03LjQzNS0xOS42MjImI3hBOyYjOTsmIzk7JiM5OyYjOTtjMC44NzktMTEuNTQ4LDEwLjE5Ny0yMS4yMTIsMjEuNjc1LTIyLjQ4YzAuOTQzLTAuMTA1LDEuODk1LTAuMTU3LDIuODMxLTAuMTU3YzEzLjU1MywwLDI0LjU4LDExLjAyNywyNC41OCwyNC41OCYjeEE7JiM5OyYjOTsmIzk7JiM5O2MwLDYuNjA2LTIuNTg1LDEyLjgwNS03LjI4MSwxNy40NTZjLTQuNTU1LDQuNTE0LTcuMDY1LDEwLjM5Ni03LjA2NSwxNi41NjVjMCw1Ljc1Myw0LjY4LDEwLjQzMywxMC40MzQsMTAuNDMzaDg4Ljl2LTgxLjAzMSYjeEE7JiM5OyYjOTsmIzk7JiM5O2M3LjQ2NSw3LjI1NSwxNy4zMDQsMTEuMjUsMjcuNzE5LDExLjI1YzExLjI5OSwwLDIyLjEwNS00LjgzLDI5LjY0Ni0xMy4yNTFjNy41MzctOC40MTUsMTEuMTQyLTE5LjcyOCw5Ljg5My0zMS4wMzcmI3hBOyYjOTsmIzk7JiM5OyYjOTtDNDIwLjEzLDI5MS45OTUsNDA0LjgwMywyNzcuMjA1LDM4NS43NzcsMjc1Ljc1N3ogTTQwMS4wMDEsMzMxLjgxN2MtNC42NjEsNS4yMDUtMTEuMzM4LDguMTktMTguMzE3LDguMTkmI3hBOyYjOTsmIzk7JiM5OyYjOTtjLTYuNDU3LDAtMTIuNTU3LTIuNDg2LTE3LjE3NC03Yy00Ljg0My00LjczNy0xMS4yODctNy4zNDQtMTguMTQ4LTcuMzQ0aC03LjYwNHY4NC4xMjZoLTY3LjIyNyYjeEE7JiM5OyYjOTsmIzk7JiM5O2MwLjI2Mi0wLjM0MiwwLjU1MS0wLjY3MSwwLjg2OC0wLjk4N2M3LjYtNy41MjgsMTEuNzg1LTE3LjU2NCwxMS43ODUtMjguMjU5YzAtMjEuOTQtMTcuODQ4LTM5Ljc4OC0zOS43ODgtMzkuNzg4JiN4QTsmIzk7JiM5OyYjOTsmIzk7Yy0xLjQ5MSwwLTMuMDA1LDAuMDg0LTQuNSwwLjI0OGMtMTguOTMxLDIuMDkzLTMzLjcyMiwxNy40MTktMzUuMTcsMzYuNDQyYy0wLjkwNSwxMS44OTgsMy40ODIsMjMuNDU4LDEyLjAzNiwzMS43MTgmI3hBOyYjOTsmIzk7JiM5OyYjOTtjMC4yMDIsMC4xOTUsMC4zOTEsMC40MDQsMC41NjksMC42MjVoLTY3LjI5NXYtNjQuNjkxYzcuMyw2LjU0MiwxNi42MTgsMTAuMTE3LDI2LjUwNywxMC4xMTcmI3hBOyYjOTsmIzk7JiM5OyYjOTtjMTEuMjk4LDAsMjIuMTA0LTQuODMsMjkuNjQ2LTEzLjI1MWM3LjUzNy04LjQxNSwxMS4xNDItMTkuNzI4LDkuODkyLTMxLjAzOGMtMi4wOTItMTguOTMtMTcuNDE5LTMzLjcyLTM2LjQ0NC0zNS4xNjgmI3hBOyYjOTsmIzk7JiM5OyYjOTtjLTEuMDI3LTAuMDc4LTIuMDY4LTAuMTE4LTMuMDkyLTAuMTE4Yy05LjkwNiwwLTE5LjIxMiwzLjU3MS0yNi41MDgsMTAuMTE2di02NC42ODlsODQuMTI2LTAuMDA1di03LjYwNCYjeEE7JiM5OyYjOTsmIzk7JiM5O2MwLTYuODU2LTIuNjA4LTEzLjI5OS03LjM0NC0xOC4xNDRjLTQuNTE1LTQuNjE4LTcuMDAxLTEwLjcxNi03LjAwMS0xNy4xNzRjMC0xMy41NTMsMTEuMDI2LTI0LjU4LDI0LjU3OS0yNC41OCYjeEE7JiM5OyYjOTsmIzk7JiM5O2MwLjkzNiwwLDEuODg4LDAuMDUzLDIuODMxLDAuMTU3YzExLjQ3OCwxLjI2NywyMC43OTYsMTAuOTMyLDIxLjY3NSwyMi40ODFjMC41NDEsNy4xMTctMS44NjcsMTMuODUxLTYuNzgsMTguOTY0JiN4QTsmIzk7JiM5OyYjOTsmIzk7Yy00LjgzMSw1LjAyNi03LjQ5MSwxMS41MjUtNy40OTEsMTguM3Y3LjYwNGg4NC4xMjZ2ODQuMTI2aDcuNjA0YzYuNzc1LDAsMTMuMjczLTIuNjYsMTguMzAxLTcuNDkxJiN4QTsmIzk7JiM5OyYjOTsmIzk7YzUuMDYxLTQuODYzLDExLjkwMS03LjMxNCwxOC45NjMtNi43OGMxMS41NDgsMC44NzgsMjEuMjEzLDEwLjE5NiwyMi40ODEsMjEuNjc1JiN4QTsmIzk7JiM5OyYjOTsmIzk7QzQwNy44OTMsMzE5LjcxNyw0MDUuNzI1LDMyNi41NDIsNDAxLjAwMSwzMzEuODE3eiIvPiYjeGE7CQk8L2c+JiN4YTsJPC9nPiYjeGE7PC9nPiYjeGE7PC9zdmc+;labelPosition=right;align=left;" vertex="1" parent="1">
          <mxGeometry x="330" y="1920" width="140" height="140" as="geometry" />
        </mxCell>
      </root>
    </mxGraphModel>
  </diagram>
</mxfile>
